<svg width="512" height="512" viewBox="0 0 512 512" fill="none" xmlns="http://www.w3.org/2000/svg">
<path fill-rule="evenodd" clip-rule="evenodd" d="M362.768 418.578L337.289 388.246C387.033 374.901 406.446 340.929 406.446 340.929C343.355 400.379 171.071 402.806 104.341 340.929C104.341 340.929 121.327 372.474 172.284 388.246L144.379 418.578C59.4502 417.365 26.692 360.341 26.692 360.341C26.692 234.161 82.5024 133.46 82.5024 133.46C139.526 93.4218 191.697 93.4218 191.697 93.4218L195.337 98.2749C124.967 117.687 94.6351 149.232 94.6351 149.232C177.137 93.4218 346.995 98.2749 413.725 149.232C414.938 148.019 373.687 115.261 309.384 98.2749L315.45 93.4218C315.45 93.4218 367.621 93.4218 424.645 133.46C424.645 133.46 480.455 234.161 480.455 360.341C480.455 360.341 447.697 417.365 362.768 418.578ZM180.777 323.943C202.89 323.943 220.815 304.931 220.815 281.479C220.815 258.026 202.89 239.014 180.777 239.014C158.665 239.014 140.739 258.026 140.739 281.479C140.739 304.931 158.665 323.943 180.777 323.943ZM361.555 281.479C361.555 304.931 343.629 323.943 321.517 323.943C299.404 323.943 281.479 304.931 281.479 281.479C281.479 258.026 299.404 239.014 321.517 239.014C343.629 239.014 361.555 258.026 361.555 281.479Z" fill="white"/>
</svg>
