<?xml version="1.0" encoding="utf-8"?>
<!-- Generator: Adobe Illustrator 15.1.0, SVG Export Plug-In  -->
<!DOCTYPE svg PUBLIC "-//W3C//DTD SVG 1.1//EN" "http://www.w3.org/Graphics/SVG/1.1/DTD/svg11.dtd" [
	<!ENTITY ns_flows "http://ns.adobe.com/Flows/1.0/">
]>
<svg version="1.1"
	 xmlns="http://www.w3.org/2000/svg" xmlns:xlink="http://www.w3.org/1999/xlink" xmlns:a="http://ns.adobe.com/AdobeSVGViewerExtensions/3.0/"
	 x="0px" y="0px" width="415px" height="416px" viewBox="0.313 0 415 416" enable-background="new 0.313 0 415 416"
	 xml:space="preserve">
<defs>
</defs>
<g>
	<defs>
		<rect id="SVGID_1_" x="0.313" width="414.978" height="416.278"/>
	</defs>
	<clipPath id="SVGID_2_">
		<use xlink:href="#SVGID_1_"  overflow="visible"/>
	</clipPath>
	<circle clip-path="url(#SVGID_2_)" fill="#192E45" cx="207.646" cy="208.633" r="207.646"/>
	<path clip-path="url(#SVGID_2_)" fill-rule="evenodd" clip-rule="evenodd" fill="#CF9239" d="M74.122,188.808l11.709-16.367
		c0.033,0.08-0.737,23.565-0.737,23.565l3.294-17.745c9.776,19.78,33.638,47.15,55.515,61.714c2.362,1.574,4.213,3.245,5.642,5.002
		c2.755,1.063,5.608,1.688,8.446,2.162c1.492,0.264,3.019,0.38,4.509,0.511c1.493,0.097,3.001,0.147,4.494,0.114
		c1.491-0.034,2.968-0.1,4.444-0.245c1.493-0.132,2.952-0.361,4.41-0.608c1.462-0.263,2.904-0.541,4.332-0.917
		c1.424-0.379,2.853-0.772,4.247-1.265c1.394-0.425,2.788-0.951,4.148-1.492c1.379-0.558,2.722-1.146,4.052-1.787
		c1.328-0.673,2.657-1.296,3.952-2.016c1.33-0.656,2.591-1.428,3.903-2.15c1.328-0.672,2.542-1.54,3.856-2.263
		c1.294-0.738,2.524-1.606,3.836-2.345c1.262-0.819,2.524-1.64,3.837-2.427c1.263-0.837,2.577-1.64,3.92-2.411l1.213-0.721
		l0.641,0.426l8.824,5.837l-8.906-2.311c-0.838,1-1.723,1.982-2.642,2.934c-1.113,1.133-2.297,2.214-3.476,3.266
		c-1.23,1.031-2.478,2.018-3.757,2.984c-1.309,0.917-2.623,1.854-4,2.673c-2.723,1.706-5.609,3.164-8.61,4.379
		c-1.492,0.606-3.017,1.164-4.543,1.672c-1.541,0.51-3.083,0.985-4.674,1.36c-1.558,0.396-3.167,0.673-4.755,0.937
		c-1.608,0.246-3.215,0.41-4.822,0.556c-3.231,0.166-6.478,0.082-9.659-0.328c-1.608-0.213-3.182-0.522-4.74-0.885
		c-1.542-0.376-3.083-0.82-4.576-1.378c-2.623-0.934-5.165-2.146-7.462-3.704c-0.016,0.031-8.462,1.179-5.051,7.525
		c3.412,6.315,8.562,5.757,6.134,13.201c-1.706,3.97-4.131,7.891-6.823,11.564c-5.561,7.609-14.366,14.251-13.498,18.253
		c39.957,49.176,129.877,42.335,164.032-1.527c-0.523-6.347-10.48-9.379-17.464-24.861c1.916,0.59,4.836,1.477,4.836,1.36
		c0-0.112-8.331-13.546-8.61-14.891l5.33,0.362c0,0-7.134-8.792-7.266-9.611l7.165-0.917c0,0-9.02-10.381-9.168-11.201l9.168,1.458
		l-10.034-12.102h4.723l-5.641-8.199c-0.969-0.313-1.919-0.609-2.87-0.903c-1.23-0.393-2.46-0.77-3.677-1.147
		c-13.724-4.247-26.565-8.232-39.028-16.022c-17.45-10.923-33.095-24.173-44.835-34.571l-23.585-11.447
		c-22.582-1.689-43.853-1.132-56.76,1.427l8.299-14.219L92.67,154.334c-0.902-0.195-1.115-0.769-1.115-0.769l0.869-18.794
		l-4.001,16.988c-1.265-0.557-2.657-0.884-4.116-0.884c-5.627,0-10.185,4.558-10.185,10.166c0,5.119,3.805,9.366,8.758,10.055
		L74.122,188.808z"/>
	<path clip-path="url(#SVGID_2_)" fill-rule="evenodd" clip-rule="evenodd" fill="#FECC86" d="M88.378,151.74
		c-1.252-0.546-2.629-0.864-4.071-0.864c-5.627,0-10.185,4.557-10.185,10.166c0,4.936,3.539,9.062,8.233,9.968
		c0.074-0.017,0.144-0.035,0.21-0.057c3.061-1.02,9.184-9.184,8.163-14.286C90.364,154.849,89.564,153.16,88.378,151.74"/>
	<path clip-path="url(#SVGID_2_)" fill="#FBD224" d="M289.139,134.459c-10.136-26.486-49.544-45.624-76.487-34.917
		c-4.855,1.937-7.695,4.183-11.532,7.626c-1.214-0.458-3.884-0.766-5.23-0.766c-6.641,0-13.676,6.26-17.318,14.642
		c-2.622,6.035-3.067,12.562-1.247,17.564c-9.545,2.065-30.93-0.426-36.555-0.426c0.461,0.231,0.92,0.441,1.378,0.672l39.162,18.614
		l0.345,0.328c11.594,10.266,27.093,23.435,44.263,34.193c10.776,6.724,49.266,18.793,51.152,19.237
		c-4.592-11.447,7.821-26.617,11.283-37.144C292.518,161.355,294.011,147.232,289.139,134.459 M206.392,132.357
		c-3.311,7.659-9.756,13.006-15.676,13.006c-1.296,0-2.526-0.245-3.61-0.737c-2.36-1.017-4.197-3.035-5.296-5.822
		c-1.836-4.659-1.427-10.89,1.081-16.68c3.346-7.659,9.793-13.006,15.695-13.006c1.246,0,2.476,0.248,3.624,0.74
		c3.134,1.361,5.299,4.444,6.084,8.707C209.1,122.814,208.426,127.716,206.392,132.357"/>
	<path clip-path="url(#SVGID_2_)" fill="#FFFFFF" d="M190.715,141.599c-0.766,0-1.476-0.139-2.053-0.401
		c-1.866-0.805-2.845-2.494-3.35-3.775c-1.453-3.686-1.058-8.976,1.033-13.804c2.716-6.217,7.866-10.737,12.241-10.737
		c0.746,0,1.466,0.147,2.142,0.436c1.937,0.841,3.315,2.949,3.864,5.928c0.67,3.536,0.083,7.649-1.648,11.6
		C200.247,137.084,195.108,141.599,190.715,141.599"/>
	<path clip-path="url(#SVGID_2_)" fill="#FFFFFF" d="M40.02,201.593c-0.04,0.224-0.217,0.347-0.441,0.306l-24.664-4.439
		c-0.224-0.041-0.347-0.217-0.307-0.441l1.776-9.866c0.995-5.531,4.921-8.258,9.778-7.384c4.783,0.861,7.542,4.83,6.553,10.324
		l-0.814,4.522c-0.027,0.149,0.035,0.237,0.184,0.264l8.483,1.527c0.224,0.04,0.347,0.217,0.307,0.441L40.02,201.593z
		 M25.173,185.263c-2.055-0.37-3.687,0.764-4.104,3.081l-0.753,4.185c-0.027,0.15,0.034,0.238,0.183,0.265l6.391,1.15
		c0.15,0.027,0.239-0.035,0.264-0.184l0.754-4.185C28.325,187.258,27.229,185.633,25.173,185.263"/>
	<path clip-path="url(#SVGID_2_)" fill="#FFFFFF" d="M45.957,165.153c-0.075,0.333-0.212,0.419-0.497,0.47l-10.208,2.232
		l-0.767,3.369c-0.034,0.148,0.023,0.239,0.172,0.273l8.997,2.05c0.222,0.051,0.336,0.233,0.286,0.455l-1.072,4.703
		c-0.051,0.222-0.232,0.336-0.454,0.286l-24.438-5.57c-0.223-0.051-0.337-0.233-0.287-0.455l2.288-10.035
		c1.172-5.146,5.17-7.819,9.762-6.772c3.221,0.735,5.388,3.02,5.977,6.075l11.054-2.7c0.248-0.06,0.445,0.102,0.385,0.361
		L45.957,165.153z M28.498,161.602c-1.889-0.431-3.414,0.624-3.887,2.698l-1.012,4.443c-0.034,0.148,0.023,0.239,0.171,0.273
		l5.813,1.325c0.149,0.033,0.239-0.024,0.273-0.172l1.013-4.443C31.342,163.652,30.423,162.041,28.498,161.602"/>
	<path clip-path="url(#SVGID_2_)" fill="#FFFFFF" d="M24.322,148.616c-0.215-0.072-0.311-0.265-0.239-0.481l1.535-4.572
		c0.073-0.216,0.265-0.312,0.481-0.239l23.76,7.975c0.216,0.072,0.312,0.265,0.239,0.481l-1.535,4.571
		c-0.072,0.217-0.264,0.312-0.48,0.24L24.322,148.616z"/>
	<path clip-path="url(#SVGID_2_)" fill="#FFFFFF" d="M54.227,141.222c-0.108,0.243-0.31,0.32-0.548,0.296l-26.195-2.709
		c-0.274-0.04-0.351-0.24-0.242-0.483l2.012-4.508c0.108-0.242,0.274-0.335,0.548-0.296l17.57,2.187l0.047-0.103l-13.422-11.481
		c-0.213-0.177-0.255-0.363-0.146-0.606l1.996-4.473c0.092-0.208,0.294-0.284,0.505-0.107l19.509,17.69
		c0.177,0.162,0.254,0.363,0.161,0.571L54.227,141.222z"/>
	<path clip-path="url(#SVGID_2_)" fill="#FFFFFF" d="M41.774,109.632c-0.155-0.183-0.206-0.392-0.067-0.619l2.49-4.087
		c0.137-0.226,0.347-0.277,0.581-0.224l25.951,5.582c0.234,0.053,0.325,0.197,0.186,0.424l-2.569,4.217
		c-0.139,0.227-0.314,0.298-0.581,0.224l-4.63-1.087l-4.702,7.72l3.107,3.584c0.188,0.203,0.207,0.392,0.068,0.619l-2.589,4.249
		c-0.137,0.227-0.307,0.213-0.462,0.029L41.774,109.632z M58.291,112.89l-9.241-2.206l-0.059,0.098l6.198,7.2L58.291,112.89z"/>
	<path clip-path="url(#SVGID_2_)" fill="#FFFFFF" d="M61.361,102.145c-3.114-2.488-4.058-3.437-5.008-4.924
		c-2.438-3.699-2.037-7.607,0.783-11.137c2.724-3.411,6.376-4.575,10.095-3.451c0.22,0.03,0.32,0.207,0.238,0.432l-1.13,4.395
		c-0.053,0.249-0.231,0.35-0.48,0.297c-1.755-0.479-3.494-0.312-4.844,1.379c-1.257,1.571-1.232,3.244-0.192,4.803
		c0.552,0.83,1.193,1.487,4.07,3.786c2.877,2.299,3.66,2.778,4.591,3.134c1.75,0.668,3.386,0.324,4.642-1.248
		c1.351-1.691,1.131-3.423,0.276-5.029c-0.108-0.231-0.048-0.427,0.183-0.534l4.037-2.071c0.201-0.131,0.397-0.072,0.474,0.136
		c1.918,3.378,1.588,7.197-1.138,10.608c-2.82,3.53-6.543,4.783-10.688,3.221C65.609,105.344,64.476,104.633,61.361,102.145"/>
	<path clip-path="url(#SVGID_2_)" fill="#FFFFFF" d="M89.446,89.272c-0.163,0.159-0.377,0.156-0.537-0.007l-6.917-7.1l-16.041-5.526
		c-0.188-0.084-0.265-0.273-0.075-0.458l3.537-3.446c0.19-0.185,0.405-0.236,0.672-0.125l9.919,3.486l0.082-0.079l-3.227-10.006
		c-0.104-0.27-0.048-0.484,0.142-0.669l3.428-3.34c0.191-0.185,0.405-0.129,0.456,0.087l5.106,16.181l6.917,7.099
		c0.16,0.164,0.157,0.379-0.007,0.537L89.446,89.272z"/>
	<path clip-path="url(#SVGID_2_)" fill="#FFFFFF" d="M91.511,53.781c-0.135-0.184-0.103-0.396,0.081-0.531l3.884-2.858
		c0.183-0.135,0.396-0.102,0.53,0.081l14.851,20.184c0.134,0.184,0.102,0.396-0.081,0.531l-3.884,2.857
		c-0.184,0.135-0.396,0.103-0.53-0.08L91.511,53.781z"/>
	<path clip-path="url(#SVGID_2_)" fill="#FFFFFF" d="M111.847,66.301c-0.208-0.052-0.41-0.242-0.364-0.535l0.781-4.317
		c0.033-0.24,0.229-0.357,0.47-0.324c2.167,0.296,4.819,0.214,7.165-1.189c2.314-1.385,2.975-3.239,2.039-4.804
		c-0.78-1.304-2.05-1.65-4.904-0.43l-1.27,0.539c-4.869,2.071-8.646,1.454-10.984-2.457c-2.437-4.074-0.992-8.611,3.798-11.477
		c2.934-1.755,6.198-2.512,8.914-2.19c0.272,0.014,0.383,0.125,0.357,0.451l-0.214,4.154c-0.033,0.241-0.177,0.371-0.398,0.371
		c-2.358-0.094-4.338,0.293-6.163,1.385c-1.956,1.17-2.361,2.785-1.523,4.186c0.76,1.271,2.16,1.54,4.917,0.378l1.271-0.539
		c4.932-2.11,8.591-1.467,10.989,2.542c2.398,4.008,1.207,8.748-4.529,12.179C118.744,66.291,114.568,66.93,111.847,66.301"/>
	<path clip-path="url(#SVGID_2_)" fill="#FFFFFF" d="M138.927,27.419c-0.007-0.24,0.084-0.435,0.333-0.526l4.493-1.644
		c0.249-0.092,0.445-0.001,0.594,0.186l16.813,20.533c0.15,0.188,0.13,0.357-0.119,0.448l-4.636,1.696
		c-0.249,0.092-0.431,0.037-0.594-0.187l-2.943-3.734l-8.487,3.106l0.199,4.739c0.02,0.276-0.084,0.434-0.333,0.526l-4.672,1.709
		c-0.249,0.091-0.373-0.025-0.38-0.265L138.927,27.419z M149.811,40.256l-5.851-7.481l-0.106,0.038l0.36,9.491L149.811,40.256z"/>
	<path clip-path="url(#SVGID_2_)" fill="#FFFFFF" d="M170.175,34.442l-2.492-15.755c-0.035-0.224,0.091-0.398,0.316-0.433
		l4.764-0.754c0.225-0.036,0.399,0.09,0.434,0.316l2.516,15.904c0.481,3.038,2.441,4.496,5.03,4.087
		c2.55-0.403,3.965-2.396,3.485-5.434l-2.515-15.905c-0.036-0.224,0.09-0.398,0.316-0.434l4.763-0.754
		c0.225-0.035,0.399,0.092,0.435,0.316l2.491,15.755c1.002,6.34-2.502,10.431-8.205,11.333
		C175.774,43.591,171.178,40.781,170.175,34.442"/>
	<path clip-path="url(#SVGID_2_)" fill="#FFFFFF" d="M194.743,14.966c-0.003-0.228,0.146-0.382,0.374-0.386l4.555-0.074
		c0.266-0.005,0.495,0.105,0.652,0.368l9.377,16.099l0.19-0.004l-0.268-16.247c-0.004-0.228,0.146-0.382,0.374-0.386l4.289-0.07
		c0.229-0.004,0.384,0.145,0.388,0.373l0.409,25.055c0.005,0.228-0.145,0.382-0.372,0.386l-4.518,0.074
		c-0.305,0.005-0.496-0.106-0.652-0.369l-9.415-16.06l-0.19,0.003l0.266,16.21c0.004,0.228-0.146,0.382-0.373,0.386l-4.29,0.07
		c-0.228,0.004-0.381-0.145-0.385-0.373L194.743,14.966z"/>
	<path clip-path="url(#SVGID_2_)" fill="#FFFFFF" d="M221.534,15.246c0.021-0.227,0.186-0.365,0.412-0.346l4.806,0.411
		c0.227,0.02,0.364,0.184,0.346,0.412l-2.138,24.972c-0.021,0.227-0.184,0.365-0.41,0.346l-4.807-0.412
		c-0.227-0.019-0.364-0.183-0.347-0.41L221.534,15.246z"/>
	<path clip-path="url(#SVGID_2_)" fill="#FFFFFF" d="M235.799,42.559c-0.261-0.048-0.384-0.224-0.417-0.462l-3.563-26.093
		c-0.027-0.275,0.149-0.397,0.411-0.349l4.856,0.888c0.26,0.048,0.391,0.187,0.417,0.462l2.031,17.59l0.113,0.021l7.979-15.758
		c0.122-0.248,0.292-0.332,0.555-0.284l4.817,0.881c0.224,0.042,0.347,0.218,0.224,0.466l-12.572,23.14
		c-0.116,0.21-0.293,0.332-0.518,0.291L235.799,42.559z"/>
	<path clip-path="url(#SVGID_2_)" fill="#FFFFFF" d="M258.398,21.349c0.068-0.217,0.261-0.315,0.477-0.246l15.771,5.03
		c0.218,0.07,0.315,0.26,0.246,0.478l-1.234,3.87c-0.069,0.217-0.261,0.315-0.478,0.246l-10.599-3.38
		c-0.145-0.047-0.24,0.002-0.286,0.147l-1.557,4.883c-0.047,0.145,0.003,0.24,0.146,0.286l8.826,2.816
		c0.218,0.069,0.315,0.26,0.247,0.477l-1.224,3.834c-0.069,0.217-0.26,0.316-0.478,0.246l-8.825-2.815
		c-0.145-0.046-0.24,0.003-0.287,0.148l-1.626,5.1c-0.046,0.145,0.003,0.24,0.148,0.287l10.598,3.38
		c0.217,0.069,0.316,0.26,0.246,0.477l-1.235,3.87c-0.068,0.218-0.26,0.316-0.476,0.247l-15.772-5.031
		c-0.217-0.069-0.314-0.26-0.245-0.477L258.398,21.349z"/>
	<path clip-path="url(#SVGID_2_)" fill="#FFFFFF" d="M283.18,58.119c-0.31-0.146-0.365-0.297-0.354-0.586l0.004-10.448l-3.127-1.471
		c-0.138-0.064-0.238-0.028-0.304,0.109l-3.927,8.351c-0.097,0.207-0.299,0.279-0.506,0.182l-4.364-2.053
		c-0.207-0.097-0.28-0.298-0.182-0.504l10.667-22.682c0.097-0.206,0.299-0.279,0.505-0.182l9.313,4.381
		c4.777,2.246,6.532,6.723,4.528,10.984c-1.406,2.99-4.101,4.617-7.213,4.539l0.273,11.376c0.007,0.255-0.193,0.412-0.435,0.299
		L283.18,58.119z M290.382,41.824c0.824-1.753,0.121-3.468-1.804-4.374l-4.124-1.939c-0.138-0.065-0.239-0.028-0.304,0.109
		l-2.538,5.395c-0.063,0.138-0.026,0.239,0.11,0.303l4.124,1.94C287.771,44.163,289.542,43.611,290.382,41.824"/>
	<path clip-path="url(#SVGID_2_)" fill="#FFFFFF" d="M291.453,58.769c-0.045-0.21,0.036-0.475,0.318-0.562l4.218-1.209
		c0.229-0.076,0.422,0.047,0.499,0.278c0.692,2.076,1.937,4.417,4.232,5.902c2.265,1.464,4.221,1.236,5.21-0.295
		c0.825-1.276,0.575-2.568-1.781-4.588l-1.046-0.902c-4.009-3.451-5.124-7.11-2.65-10.937c2.578-3.986,7.286-4.695,11.974-1.665
		c2.87,1.855,4.992,4.448,5.902,7.027c0.109,0.251,0.06,0.399-0.245,0.519l-3.821,1.644c-0.229,0.078-0.411,0.006-0.509-0.193
		c-0.956-2.156-2.18-3.761-3.966-4.915c-1.913-1.237-3.541-0.888-4.427,0.484c-0.805,1.244-0.428,2.618,1.834,4.577l1.045,0.901
		c4.071,3.493,5.112,7.059,2.578,10.981c-2.536,3.922-7.315,4.948-12.929,1.32C294.51,64.951,292.092,61.488,291.453,58.769"/>
	<path clip-path="url(#SVGID_2_)" fill="#FFFFFF" d="M330.579,59.066c0.206-0.124,0.42-0.141,0.622,0.032l3.639,3.109
		c0.2,0.173,0.218,0.388,0.127,0.61l-9.648,24.729c-0.091,0.223-0.247,0.289-0.448,0.117l-3.753-3.209
		c-0.203-0.173-0.244-0.358-0.129-0.609l1.812-4.398l-6.871-5.874l-4.034,2.497c-0.231,0.154-0.42,0.141-0.623-0.032l-3.781-3.233
		c-0.201-0.173-0.16-0.337,0.045-0.461L330.579,59.066z M324.729,74.852l3.65-8.771l-0.087-0.074l-8.096,4.97L324.729,74.852z"/>
	<path clip-path="url(#SVGID_2_)" fill="#FFFFFF" d="M345.387,72.514c0.169-0.152,0.384-0.142,0.536,0.028l3.229,3.583
		c0.152,0.169,0.142,0.384-0.027,0.537l-15.039,13.552c-0.113,0.102-0.118,0.21-0.018,0.322L341.697,99
		c0.152,0.169,0.142,0.383-0.027,0.536l-3.133,2.823c-0.17,0.152-0.384,0.141-0.535-0.029l-11.265-12.499
		c-0.152-0.169-0.142-0.384,0.027-0.536L345.387,72.514z"/>
	<path clip-path="url(#SVGID_2_)" fill="#FFFFFF" d="M352.445,123.697c-0.18-0.29-0.143-0.447,0.023-0.684l5.706-8.749l-1.817-2.938
		c-0.08-0.13-0.184-0.155-0.314-0.075l-7.847,4.852c-0.194,0.119-0.403,0.07-0.522-0.124l-2.535-4.102
		c-0.12-0.193-0.07-0.402,0.124-0.522l21.313-13.175c0.194-0.119,0.402-0.07,0.523,0.123l5.409,8.752
		c2.773,4.489,1.801,9.197-2.202,11.672c-2.811,1.737-5.956,1.628-8.521-0.135l-5.979,9.678c-0.134,0.216-0.389,0.239-0.527,0.013
		L352.445,123.697z M367.371,113.98c1.647-1.018,1.994-2.839,0.876-4.648l-2.396-3.875c-0.08-0.13-0.185-0.154-0.313-0.074
		l-5.069,3.134c-0.13,0.08-0.154,0.184-0.074,0.313l2.396,3.876C363.907,114.515,365.692,115.019,367.371,113.98"/>
	<path clip-path="url(#SVGID_2_)" fill="#FFFFFF" d="M379.46,120.256c0.204-0.1,0.408-0.03,0.509,0.175l2.119,4.332
		c0.101,0.205,0.03,0.408-0.174,0.508l-22.517,11.017c-0.205,0.1-0.408,0.031-0.509-0.174l-2.119-4.333
		c-0.101-0.205-0.03-0.408,0.174-0.508L379.46,120.256z"/>
	<path clip-path="url(#SVGID_2_)" fill="#FFFFFF" d="M372.931,135.16c3.599-1.333,5.003-1.693,6.875-1.779
		c4.379-0.206,7.579,2.415,9.177,6.724c1.678,4.522,0.53,8.31-1.969,10.533c-0.173,0.185-0.399,0.229-0.587,0.055l-3.015-3.216
		c-0.164-0.223-0.158-0.428-0.006-0.565c1.28-1.569,1.687-3.096,0.946-5.09c-0.766-2.066-2.273-2.965-4.145-2.878
		c-0.961,0.031-2.14,0.347-5.309,1.522c-3.171,1.175-4.306,1.718-5.055,2.319c-1.476,1.156-1.983,2.843-1.205,4.944
		c0.674,1.816,2.146,3.053,3.933,2.957c0.671-0.046,1.458-0.217,2.491-0.6c0.143-0.052,0.188-0.15,0.135-0.293l-1.215-3.276
		c-0.079-0.213,0.01-0.409,0.224-0.488l3.419-1.268c0.213-0.079,0.408,0.011,0.488,0.225l3.089,8.333
		c0.08,0.213-0.01,0.408-0.224,0.487l-1.994,0.74c-2.138,0.792-4.197,1.354-5.672,1.415c-4.331,0.228-7.744-2.314-9.329-6.587
		c-1.598-4.309-0.881-8.382,2.574-11.081C368.034,137.138,369.334,136.494,372.931,135.16"/>
	<path clip-path="url(#SVGID_2_)" fill="#FFFFFF" d="M393.694,156.555c0.223-0.048,0.403,0.067,0.452,0.291l1.021,4.714
		c0.048,0.223-0.069,0.403-0.291,0.452l-9.467,2.048c-0.148,0.033-0.205,0.123-0.174,0.271l1.783,8.241
		c0.032,0.149,0.123,0.207,0.271,0.174l9.466-2.048c0.223-0.048,0.402,0.068,0.452,0.291l1.019,4.714
		c0.049,0.223-0.067,0.403-0.289,0.452l-24.5,5.302c-0.224,0.049-0.404-0.068-0.453-0.291l-1.019-4.714
		c-0.049-0.223,0.066-0.403,0.29-0.451l9.726-2.105c0.149-0.032,0.206-0.123,0.174-0.272l-1.783-8.24
		c-0.031-0.149-0.122-0.207-0.271-0.175l-9.725,2.105c-0.224,0.048-0.404-0.068-0.452-0.291l-1.021-4.714
		c-0.048-0.222,0.068-0.403,0.291-0.452L393.694,156.555z"/>
	<path clip-path="url(#SVGID_2_)" fill="#FFFFFF" d="M373.992,191.291c-0.019-0.228,0.122-0.391,0.348-0.409l20.176-1.618
		c0.151-0.013,0.222-0.094,0.209-0.246l-0.521-6.51c-0.02-0.227,0.121-0.391,0.348-0.409l4.201-0.337
		c0.227-0.018,0.391,0.121,0.41,0.348l1.525,19.04c0.02,0.227-0.119,0.391-0.347,0.409l-4.202,0.337
		c-0.227,0.018-0.39-0.121-0.409-0.348l-0.522-6.511c-0.011-0.152-0.093-0.221-0.245-0.209l-20.176,1.618
		c-0.228,0.019-0.391-0.121-0.408-0.348L373.992,191.291z"/>
	<path clip-path="url(#SVGID_2_)" fill="#FFFFFF" d="M90.904,325.431c0.171-0.204,0.421-0.226,0.625-0.056l4.057,3.388
		c0.272,0.228,0.358,0.472,0.26,0.795l-5.181,18.122l0.136,0.113l16.805-8.414c0.301-0.154,0.557-0.113,0.83,0.114l3.988,3.33
		c0.204,0.171,0.227,0.421,0.056,0.626l-18.786,22.495c-0.171,0.205-0.421,0.228-0.626,0.057l-3.851-3.216
		c-0.205-0.172-0.228-0.422-0.057-0.625l10.902-13.056l-0.137-0.114l-12.463,6.196c-0.392,0.193-0.711,0.158-1.017-0.098
		l-2.353-1.964c-0.306-0.257-0.397-0.563-0.277-0.984l3.874-13.368l-0.136-0.113l-10.901,13.054
		c-0.171,0.205-0.421,0.227-0.626,0.056l-3.852-3.216c-0.204-0.171-0.227-0.421-0.056-0.625L90.904,325.431z"/>
	<path clip-path="url(#SVGID_2_)" fill="#FFFFFF" d="M106.518,361.663l9.248-16.199c0.131-0.231,0.374-0.298,0.606-0.165
		l4.897,2.796c0.232,0.132,0.298,0.374,0.166,0.605l-9.335,16.354c-1.784,3.124-1.061,5.889,1.601,7.408
		c2.622,1.497,5.37,0.714,7.154-2.41l9.335-16.353c0.132-0.232,0.374-0.299,0.606-0.166l4.898,2.797
		c0.232,0.131,0.298,0.373,0.166,0.605l-9.247,16.198c-3.721,6.519-9.912,7.688-15.775,4.343
		C104.937,374.107,102.797,368.181,106.518,361.663"/>
	<path clip-path="url(#SVGID_2_)" fill="#FFFFFF" d="M139.611,358.526c0.096-0.248,0.325-0.352,0.574-0.256l5.264,2.025
		c0.249,0.095,0.351,0.326,0.255,0.574l-8.498,22.093c-0.064,0.165-0.013,0.28,0.153,0.344l12.435,4.783
		c0.248,0.096,0.35,0.326,0.255,0.574l-1.77,4.601c-0.096,0.25-0.326,0.352-0.574,0.256l-18.363-7.063
		c-0.248-0.096-0.35-0.325-0.254-0.574L139.611,358.526z"/>
	<path clip-path="url(#SVGID_2_)" fill="#FFFFFF" d="M161.163,366.489c0.06-0.259,0.273-0.393,0.532-0.332l5.496,1.271
		c0.26,0.061,0.392,0.272,0.333,0.532l-5.337,23.063c-0.04,0.174,0.027,0.28,0.2,0.32l12.981,3.004
		c0.259,0.06,0.393,0.272,0.333,0.533l-1.112,4.803c-0.06,0.26-0.273,0.393-0.532,0.332l-19.17-4.435
		c-0.26-0.061-0.392-0.274-0.332-0.533L161.163,366.489z"/>
	<path clip-path="url(#SVGID_2_)" fill="#FFFFFF" d="M185.312,401.349c-0.31-0.03-0.468-0.225-0.53-0.499l-6.6-30.087
		c-0.057-0.318,0.138-0.477,0.447-0.446l5.745,0.581c0.309,0.031,0.473,0.181,0.529,0.501l4.017,20.316l0.133,0.013l7.826-19.119
		c0.12-0.301,0.31-0.415,0.619-0.383l5.701,0.575c0.265,0.026,0.424,0.222,0.304,0.522l-12.49,28.156
		c-0.116,0.256-0.31,0.415-0.575,0.388L185.312,401.349z"/>
	<path clip-path="url(#SVGID_2_)" fill="#FFFFFF" d="M211.748,372.831c0.078-0.271,0.248-0.454,0.559-0.469l5.592-0.241
		c0.311-0.013,0.495,0.157,0.596,0.419l11.47,28.849c0.101,0.263,0.02,0.443-0.291,0.458l-5.769,0.249
		c-0.311,0.013-0.494-0.113-0.596-0.42l-1.958-5.206l-10.563,0.456l-1.459,5.354c-0.075,0.313-0.247,0.454-0.557,0.468l-5.814,0.251
		c-0.31,0.014-0.407-0.16-0.33-0.431L211.748,372.831z M219.335,390.999l-3.873-10.414l-0.133,0.006l-2.961,10.709L219.335,390.999z
		"/>
	<path clip-path="url(#SVGID_2_)" fill="#FFFFFF" d="M230.526,371.682c-0.054-0.261,0.084-0.471,0.345-0.524l11.003-2.27
		c5.177-1.067,9.243,0.406,11.593,4.546c0.862,1.545,1.465,3.145,2.46,7.972c0.996,4.827,1.076,6.534,0.895,8.294
		c-0.52,4.731-3.673,7.694-8.848,8.762l-11.003,2.27c-0.261,0.054-0.472-0.084-0.525-0.345L230.526,371.682z M242.015,393.75
		l3.349-0.69c2.957-0.609,4.562-1.848,4.808-4.392c0.125-0.933,0.065-2.099-0.725-5.927c-0.789-3.826-1.196-4.922-1.68-5.729
		c-1.232-2.239-3.195-2.741-6.152-2.132l-3.349,0.69c-0.174,0.036-0.243,0.142-0.207,0.315l3.642,17.656
		C241.736,393.718,241.841,393.786,242.015,393.75"/>
	<path clip-path="url(#SVGID_2_)" fill="#FFFFFF" d="M263.296,388.593c-0.083-0.254,0.032-0.478,0.285-0.56l5.026-1.628
		c0.254-0.083,0.479,0.031,0.561,0.285l1.642,5.069c0.083,0.253-0.032,0.477-0.285,0.559l-5.026,1.629
		c-0.254,0.083-0.479-0.032-0.561-0.285L263.296,388.593z"/>
	<path clip-path="url(#SVGID_2_)" fill="#FFFFFF" d="M265.992,362.77c-0.11-0.241-0.023-0.478,0.219-0.589l4.845-2.217
		c0.283-0.13,0.581-0.12,0.872,0.089l17.601,12.845l0.201-0.093l-7.91-17.279c-0.11-0.242-0.023-0.479,0.219-0.59l4.562-2.088
		c0.243-0.11,0.479-0.022,0.591,0.22l12.197,26.646c0.111,0.242,0.023,0.479-0.219,0.589l-4.805,2.2
		c-0.323,0.147-0.58,0.118-0.871-0.09l-17.623-12.786l-0.201,0.092l7.892,17.241c0.111,0.242,0.023,0.477-0.219,0.588l-4.563,2.089
		c-0.242,0.11-0.478,0.022-0.588-0.22L265.992,362.77z"/>
	<path clip-path="url(#SVGID_2_)" fill="#FFFFFF" d="M290.786,350.883c-0.147-0.222-0.098-0.468,0.125-0.615l16.159-10.672
		c0.222-0.147,0.468-0.097,0.614,0.126l2.619,3.965c0.147,0.222,0.098,0.469-0.126,0.616l-10.857,7.172
		c-0.148,0.097-0.173,0.22-0.076,0.368l3.305,5.003c0.099,0.148,0.22,0.174,0.369,0.075l9.043-5.972
		c0.222-0.146,0.468-0.097,0.615,0.125l2.594,3.929c0.147,0.223,0.097,0.469-0.126,0.615l-9.042,5.973
		c-0.148,0.099-0.173,0.222-0.075,0.369l3.451,5.226c0.098,0.148,0.221,0.174,0.369,0.076l10.859-7.173
		c0.222-0.146,0.468-0.097,0.614,0.126l2.619,3.966c0.147,0.222,0.096,0.468-0.126,0.615l-16.157,10.672
		c-0.223,0.146-0.469,0.097-0.615-0.125L290.786,350.883z"/>
	<path clip-path="url(#SVGID_2_)" fill="#FFFFFF" d="M335.034,355.469c-0.198,0.176-0.451,0.161-0.627-0.039l-15.685-17.728
		c-0.118-0.133-0.244-0.141-0.376-0.022l-5.722,5.062c-0.199,0.177-0.45,0.162-0.627-0.039l-3.267-3.69
		c-0.176-0.2-0.161-0.45,0.039-0.626l16.729-14.805c0.2-0.176,0.451-0.161,0.627,0.039l3.267,3.692
		c0.177,0.199,0.162,0.449-0.038,0.627l-5.72,5.061c-0.135,0.118-0.142,0.243-0.023,0.376l15.686,17.728
		c0.177,0.199,0.161,0.45-0.038,0.627L335.034,355.469z"/>
	<path clip-path="url(#SVGID_2_)" fill="#FFFFFF" d="M56.947,298.015c-11.619-19.29-19.335-40.445-22.935-62.881
		c-1.254-7.827-1.968-15.89-2.121-23.966l-6.122,0.116c0.158,8.36,0.898,16.711,2.199,24.819
		c3.724,23.213,11.709,45.105,23.734,65.07c5.914,9.82,12.515,18.761,20.178,27.332l4.564-4.081
		C69.039,316.143,62.661,307.504,56.947,298.015"/>
	<path clip-path="url(#SVGID_2_)" fill="#FFFFFF" d="M383.78,211.177c-0.493,30.542-8.99,59.73-25.258,86.754
		c-5.744,9.541-12.138,18.218-19.548,26.526l4.569,4.075c7.667-8.597,14.281-17.572,20.225-27.443
		c16.831-27.96,25.624-58.178,26.134-89.813L383.78,211.177z"/>
</g>
</svg>
