<svg xmlns="http://www.w3.org/2000/svg" xmlns:xlink="http://www.w3.org/1999/xlink" viewBox="0 0 400 400"><defs><clipPath id="a"><path d="M309.37,297.66a146,146,0,0,0,16.29-22.1" fill="none" stroke="#002d44" stroke-miterlimit="10" stroke-width="6" clip-rule="evenodd"/></clipPath><clipPath id="b"><path d="M74.34,275.63a145.05,145.05,0,0,0,16.25,22" fill="none" stroke="#002d44" stroke-miterlimit="10" stroke-width="6" clip-path="url(#a)" clip-rule="evenodd"/></clipPath><clipPath id="c"><path d="M53.46,203.24a141.67,141.67,0,0,0,1.77,20h0a146.16,146.16,0,0,0,19.11,52.41" fill="none" stroke="#002d44" stroke-miterlimit="10" stroke-width="6" clip-path="url(#b)" clip-rule="evenodd"/></clipPath><clipPath id="d"><path d="M325.66,275.56a143.36,143.36,0,0,0,21-72.32" fill="none" stroke="#002d44" stroke-miterlimit="10" stroke-width="6" clip-path="url(#c)" clip-rule="evenodd"/></clipPath><clipPath id="e"><path d="M73.68,200A126.32,126.32,0,1,0,200,73.68,126.33,126.33,0,0,0,73.68,200Z" fill="#002d44" clip-rule="evenodd"/></clipPath><clipPath id="f"><path d="M90.56,184.88l9.59-13.41c0,.07-.61,19.31-.61,19.31l2.7-14.54c8,16.2,27.55,38.62,45.47,50.55a20.52,20.52,0,0,1,4.63,4.1,35.25,35.25,0,0,0,6.91,1.77c1.23.22,2.48.31,3.7.42s2.46.12,3.68.09,2.43-.08,3.64-.2,2.42-.29,3.61-.5,2.38-.44,3.55-.75,2.34-.63,3.48-1,2.28-.78,3.4-1.22,2.23-.94,3.32-1.47,2.17-1.06,3.23-1.65,2.12-1.17,3.2-1.76,2.08-1.26,3.16-1.85,2.07-1.32,3.14-1.92,2.07-1.35,3.14-2,2.11-1.35,3.21-2l1-.59.52.35,7.23,4.78-7.3-1.89c-.68.82-1.41,1.62-2.16,2.4-.91.93-1.88,1.82-2.85,2.68s-2,1.65-3.07,2.44-2.15,1.52-3.28,2.19a45.36,45.36,0,0,1-7.05,3.59c-1.22.5-2.47.95-3.72,1.37s-2.53.8-3.83,1.11-2.6.55-3.9.77-2.63.33-4,.45a44.44,44.44,0,0,1-7.91-.26c-1.32-.18-2.61-.43-3.88-.73a33,33,0,0,1-3.75-1.13,27,27,0,0,1-6.11-3s-6.93,1-4.14,6.16,7,4.72,5,10.82A49.27,49.27,0,0,1,148,257.8c-4.56,6.23-11.77,11.67-11.06,14.95C169.67,313,243.32,307.43,271.3,271.5c-.43-5.2-8.58-7.68-14.3-20.37a39.19,39.19,0,0,0,4,1.12c0-.09-6.83-11.1-7-12.2l4.36.3s-5.84-7.2-5.95-7.88l5.87-.75s-7.39-8.5-7.51-9.17l7.51,1.19L250,213.83h3.87l-4.62-6.72-2.35-.74-3-.94c-11.25-3.47-21.76-6.74-32-13.12-14.3-8.95-27.11-19.8-36.73-28.32l-19.32-9.37c-18.5-1.39-35.92-.93-46.49,1.16l6.8-11.64-10.4,12.5a1.18,1.18,0,0,1-.91-.63l.71-15.39-3.28,13.91a8.48,8.48,0,0,0-3.37-.72,8.32,8.32,0,0,0-1.17,16.56l-7.17,14.51Z" fill="#c98d26" clip-rule="evenodd"/></clipPath><clipPath id="g"><path d="M175.09,143.76c-1.49-4.1-1.13-9.44,1-14.39,3-6.86,8.65-11.47,14.09-11.47a8.76,8.76,0,0,1,3.15.58A35.94,35.94,0,0,1,204,111.76c22.07-8.77,54.35,6.91,62.65,28.6,4,10.47,2.77,22-.64,32.46-2.84,8.62-13,21.05-9.25,30.42-1.54-.36-33.07-10.25-41.9-15.75-14.06-8.82-26.76-19.6-36.25-28l-.28-.27L146.28,144l-1.13-.55c4.61,0,22.12,2,29.94.35" fill="#ffd321" clip-rule="evenodd"/></clipPath><clipPath id="h"><path d="M177.3,143.57a8.26,8.26,0,0,0,4.34,4.77,7,7,0,0,0,3,.61c4.85,0,10.12-4.38,12.84-10.66A19.6,19.6,0,0,0,199,127c-.65-3.5-2.42-6-5-7.14a7.58,7.58,0,0,0-3-.6c-4.83,0-10.11,4.38-12.85,10.65-2.06,4.74-2.39,9.85-.89,13.66Z" fill="none" clip-rule="evenodd"/></clipPath></defs><title>MullvadVPN_logo_positive</title><g clip-path="url(#d)"><rect x="48.52" y="48.52" width="302.95" height="302.95" rx="141.5" ry="141.5" transform="translate(-29.15 34.2) rotate(-9.11)" fill="none" stroke="#002d44" stroke-miterlimit="10" stroke-width="6"/></g><path d="M309.37,297.66a146,146,0,0,0,16.29-22.1" fill="none" stroke="#002d44" stroke-miterlimit="10" stroke-width="6" fill-rule="evenodd"/><path d="M74.34,275.63a145.05,145.05,0,0,0,16.25,22" fill="none" stroke="#002d44" stroke-miterlimit="10" stroke-width="6" fill-rule="evenodd"/><path d="M53.46,203.24a141.67,141.67,0,0,0,1.77,20h0a146.16,146.16,0,0,0,19.11,52.41" fill="none" stroke="#002d44" stroke-miterlimit="10" stroke-width="6" fill-rule="evenodd"/><path d="M325.66,275.56a143.36,143.36,0,0,0,21-72.32" fill="none" stroke="#002d44" stroke-miterlimit="10" stroke-width="6" fill-rule="evenodd"/><path d="M73.68,200A126.32,126.32,0,1,0,200,73.68,126.33,126.33,0,0,0,73.68,200Z" fill="#002d44" fill-rule="evenodd"/><g clip-path="url(#e)"><rect x="69.5" y="69.5" width="261" height="261" rx="121.9" ry="121.9" fill="#002d44"/></g><path d="M90.56,184.88l9.59-13.41c0,.07-.61,19.31-.61,19.31l2.7-14.54c8,16.2,27.55,38.62,45.47,50.55a20.52,20.52,0,0,1,4.63,4.1,35.25,35.25,0,0,0,6.91,1.77c1.23.22,2.48.31,3.7.42s2.46.12,3.68.09,2.43-.08,3.64-.2,2.42-.29,3.61-.5,2.38-.44,3.55-.75,2.34-.63,3.48-1,2.28-.78,3.4-1.22,2.23-.94,3.32-1.47,2.17-1.06,3.23-1.65,2.12-1.17,3.2-1.76,2.08-1.26,3.16-1.85,2.07-1.32,3.14-1.92,2.07-1.35,3.14-2,2.11-1.35,3.21-2l1-.59.52.35,7.23,4.78-7.3-1.89c-.68.82-1.41,1.62-2.16,2.4-.91.93-1.88,1.82-2.85,2.68s-2,1.65-3.07,2.44-2.15,1.52-3.28,2.19a45.36,45.36,0,0,1-7.05,3.59c-1.22.5-2.47.95-3.72,1.37s-2.53.8-3.83,1.11-2.6.55-3.9.77-2.63.33-4,.45a44.44,44.44,0,0,1-7.91-.26c-1.32-.18-2.61-.43-3.88-.73a33,33,0,0,1-3.75-1.13,27,27,0,0,1-6.11-3s-6.93,1-4.14,6.16,7,4.72,5,10.82A49.27,49.27,0,0,1,148,257.8c-4.56,6.23-11.77,11.67-11.06,14.95C169.67,313,243.32,307.43,271.3,271.5c-.43-5.2-8.58-7.68-14.3-20.37a39.19,39.19,0,0,0,4,1.12c0-.09-6.83-11.1-7-12.2l4.36.3s-5.84-7.2-5.95-7.88l5.87-.75s-7.39-8.5-7.51-9.17l7.51,1.19L250,213.83h3.87l-4.62-6.72-2.35-.74-3-.94c-11.25-3.47-21.76-6.74-32-13.12-14.3-8.95-27.11-19.8-36.73-28.32l-19.32-9.37c-18.5-1.39-35.92-.93-46.49,1.16l6.8-11.64-10.4,12.5a1.18,1.18,0,0,1-.91-.63l.71-15.39-3.28,13.91a8.48,8.48,0,0,0-3.37-.72,8.32,8.32,0,0,0-1.17,16.56l-7.17,14.51Z" fill="#c98d26" fill-rule="evenodd"/><g clip-path="url(#f)"><rect x="86.38" y="136.44" width="189.1" height="168.5" fill="#cf9239"/></g><path d="M102.23,154.52a8.25,8.25,0,0,0-3.33-.71,8.32,8.32,0,0,0-1.6,16.49l.17,0c2.51-.84,7.52-7.53,6.69-11.71a9.05,9.05,0,0,0-1.93-4Z" fill="#fecc86" fill-rule="evenodd"/><path d="M175.09,143.76c-1.49-4.1-1.13-9.44,1-14.39,3-6.86,8.65-11.47,14.09-11.47a8.76,8.76,0,0,1,3.15.58A35.94,35.94,0,0,1,204,111.76c22.07-8.77,54.35,6.91,62.65,28.6,4,10.47,2.77,22-.64,32.46-2.84,8.62-13,21.05-9.25,30.42-1.54-.36-33.07-10.25-41.9-15.75-14.06-8.82-26.76-19.6-36.25-28l-.28-.27L146.28,144l-1.13-.55c4.61,0,22.12,2,29.94.35" fill="#ffd321" fill-rule="evenodd"/><g clip-path="url(#g)"><rect x="140.97" y="105.1" width="132.39" height="102.32" fill="#ffd321"/></g><g clip-path="url(#h)"><path d="M184.6,147.45a5.65,5.65,0,0,1-2.34-.47,6.82,6.82,0,0,1-3.56-4c-1.36-3.44-1-8.12.86-12.51,2.51-5.74,7.23-9.75,11.48-9.75a6,6,0,0,1,2.38.48c2.09.91,3.55,3.05,4.1,6a18,18,0,0,1-1.46,10.42C193.62,143.35,188.8,147.45,184.6,147.45Z" fill="#fff"/><path d="M191,122.26a4.42,4.42,0,0,1,1.78.36c1.62.7,2.77,2.45,3.23,4.93a16.57,16.57,0,0,1-1.37,9.55c-2.21,5.13-6.45,8.85-10.08,8.85a4.19,4.19,0,0,1-1.72-.34h0a5.46,5.46,0,0,1-2.74-3.12c-1.2-3-.87-7.39.85-11.36,2.24-5.13,6.49-8.85,10.1-8.85m0-3c-4.83,0-10.11,4.38-12.85,10.65-2.06,4.74-2.39,9.85-.89,13.66a8.26,8.26,0,0,0,4.34,4.77,7,7,0,0,0,3,.61c4.85,0,10.12-4.38,12.84-10.66A19.6,19.6,0,0,0,199,127c-.65-3.5-2.42-6-5-7.14a7.58,7.58,0,0,0-3-.6Z" fill="#1d2a3a"/></g><path d="M62.62,195.33a.29.29,0,0,1-.36.25l-20.2-3.65a.29.29,0,0,1-.25-.36l1.46-8.08c.82-4.53,4-6.76,8-6s6.18,4,5.37,8.46l-.67,3.7a.17.17,0,0,0,.15.22l6.95,1.25a.3.3,0,0,1,.25.36ZM50.47,182a2.77,2.77,0,0,0-3.36,2.52l-.62,3.43a.16.16,0,0,0,.15.21l5.23.95c.13,0,.2,0,.22-.15l.62-3.43A2.75,2.75,0,0,0,50.47,182Z" fill="#002d44"/><path d="M67.5,165.48a.43.43,0,0,1-.41.39l-8.36,1.82-.63,2.76a.16.16,0,0,0,.14.22l7.37,1.69a.29.29,0,0,1,.23.37L65,176.58a.29.29,0,0,1-.37.23l-20-4.57a.29.29,0,0,1-.24-.37l1.88-8.22c1-4.21,4.24-6.4,8-5.54a6.19,6.19,0,0,1,4.89,5l9-2.21a.24.24,0,0,1,.32.3Zm-14.3-2.91A2.56,2.56,0,0,0,50,164.78l-.84,3.63a.18.18,0,0,0,.14.23l4.76,1.08c.13,0,.2,0,.23-.14l.83-3.63A2.57,2.57,0,0,0,53.2,162.57Z" fill="#002d44"/><path d="M49.78,151.93a.29.29,0,0,1-.2-.39l1.26-3.75a.29.29,0,0,1,.39-.19l19.46,6.53a.29.29,0,0,1,.19.4l-1.25,3.74a.3.3,0,0,1-.4.2Z" fill="#002d44"/><path d="M74.27,145.88a.4.4,0,0,1-.45.24L52.37,143.9c-.23,0-.29-.2-.2-.4l1.65-3.69a.37.37,0,0,1,.45-.24l14.39,1.79,0-.08-11-9.4a.38.38,0,0,1-.12-.5l1.64-3.66a.24.24,0,0,1,.41-.09l16,14.49a.41.41,0,0,1,.13.47Z" fill="#002d44"/><path d="M64.07,120a.41.41,0,0,1,0-.51l2-3.34a.4.4,0,0,1,.47-.19l21.26,4.58c.19,0,.27.16.15.35l-2.1,3.45a.38.38,0,0,1-.48.18l-3.79-.89L77.72,130l2.54,2.93a.38.38,0,0,1,.06.51l-2.12,3.48c-.12.18-.26.17-.38,0Zm13.53,2.67L70,120.86l0,.08,5.08,5.9Z" fill="#002d44"/><path d="M80.12,113.87c-2.55-2-3.32-2.82-4.1-4-2-3-1.67-6.23.64-9.12s5.23-3.75,8.27-2.82a.24.24,0,0,1,.2.35l-.93,3.6a.29.29,0,0,1-.39.24,3.5,3.5,0,0,0-4,1.13,3.11,3.11,0,0,0-.16,3.94c.45.68,1,1.22,3.33,3.1s3,2.28,3.76,2.57a3.12,3.12,0,0,0,3.81-1,3.5,3.5,0,0,0,.22-4.12.31.31,0,0,1,.16-.44l3.3-1.7a.25.25,0,0,1,.39.12,7.45,7.45,0,0,1-.93,8.69c-2.32,2.89-5.37,3.91-8.76,2.63C83.6,116.49,82.67,115.91,80.12,113.87Z" fill="#002d44"/><path d="M103.11,103.35a.3.3,0,0,1-.44,0L97,97.53,83.87,93a.21.21,0,0,1-.06-.37l2.9-2.82a.45.45,0,0,1,.55-.1l8.12,2.85.06-.06L92.8,84.3a.47.47,0,0,1,.12-.55L95.73,81c.15-.15.33-.11.37.07l4.18,13.25,5.66,5.82a.3.3,0,0,1,0,.44Z" fill="#002d44"/><path d="M104.8,74.27a.29.29,0,0,1,.06-.43l3.19-2.34a.29.29,0,0,1,.43.06L120.65,88.1a.3.3,0,0,1-.07.44l-3.18,2.34a.3.3,0,0,1-.44-.07Z" fill="#002d44"/><path d="M121.48,84.52a.38.38,0,0,1-.3-.44l.64-3.54a.32.32,0,0,1,.39-.26,9,9,0,0,0,5.87-1c1.89-1.14,2.43-2.66,1.67-3.94-.64-1.07-1.68-1.35-4-.35l-1,.44c-4,1.69-7.08,1.19-9-2s-.81-7,3.12-9.4a12,12,0,0,1,7.3-1.79c.22,0,.31.1.29.37l-.17,3.4a.32.32,0,0,1-.33.31,8.77,8.77,0,0,0-5.05,1.13c-1.6,1-1.93,2.28-1.25,3.43s1.77,1.26,4,.31l1-.44c4-1.73,7-1.2,9,2.08s1,7.17-3.71,10A12.52,12.52,0,0,1,121.48,84.52Z" fill="#002d44"/><path d="M143.63,52.68a.42.42,0,0,1,.28-.43l3.68-1.34a.38.38,0,0,1,.48.15l13.78,16.81c.12.16.11.3-.1.37L158,69.63a.37.37,0,0,1-.49-.15l-2.41-3.06L148.11,69l.16,3.88a.38.38,0,0,1-.27.43l-3.83,1.4c-.2.07-.31,0-.31-.22Zm8.92,10.52-4.79-6.13-.09,0,.3,7.78Z" fill="#002d44"/><path d="M169.24,58.44l-2-12.91a.29.29,0,0,1,.26-.36l3.9-.61a.29.29,0,0,1,.36.25l2.06,13c.39,2.49,2,3.69,4.11,3.35s3.25-2,2.86-4.45l-2.06-13a.29.29,0,0,1,.26-.35l3.91-.62a.29.29,0,0,1,.35.26l2,12.91c.82,5.19-2.05,8.54-6.72,9.28S170.06,63.63,169.24,58.44Z" fill="#002d44"/><path d="M189.38,42.48a.29.29,0,0,1,.3-.31l3.73-.06a.56.56,0,0,1,.54.3l7.68,13.19h.15l-.21-13.31a.29.29,0,0,1,.3-.32l3.52-.06a.29.29,0,0,1,.31.31L206,62.74a.3.3,0,0,1-.31.32l-3.7.06a.57.57,0,0,1-.54-.3l-7.7-13.16h-.16l.21,13.28a.29.29,0,0,1-.3.32l-3.52.05a.29.29,0,0,1-.31-.3Z" fill="#002d44"/><path d="M211.3,42.72a.31.31,0,0,1,.34-.29l3.94.34a.3.3,0,0,1,.28.34l-1.75,20.45a.29.29,0,0,1-.34.28l-3.93-.33a.3.3,0,0,1-.29-.34Z" fill="#002d44"/><path d="M223,65.09a.39.39,0,0,1-.34-.38l-2.92-21.37c0-.23.12-.33.33-.29l4,.73a.37.37,0,0,1,.34.38l1.67,14.4.09,0,6.53-12.91a.38.38,0,0,1,.46-.23l3.94.72a.24.24,0,0,1,.19.38L227,65.5a.4.4,0,0,1-.42.24Z" fill="#002d44"/><path d="M241.51,47.71a.29.29,0,0,1,.39-.2l12.92,4.12a.3.3,0,0,1,.2.39l-1,3.17a.3.3,0,0,1-.39.21l-8.69-2.78a.17.17,0,0,0-.23.13l-1.28,4a.16.16,0,0,0,.12.23l7.23,2.31a.29.29,0,0,1,.2.39l-1,3.14a.29.29,0,0,1-.39.2l-7.23-2.31a.17.17,0,0,0-.23.13L240.78,65a.17.17,0,0,0,.12.24L249.58,68a.3.3,0,0,1,.21.39l-1,3.17a.29.29,0,0,1-.39.2l-12.92-4.12a.3.3,0,0,1-.2-.39Z" fill="#002d44"/><path d="M261.79,77.83a.42.42,0,0,1-.29-.48V68.8L259,67.59a.17.17,0,0,0-.25.09l-3.22,6.84a.29.29,0,0,1-.41.15L251.49,73a.31.31,0,0,1-.15-.42L260.09,54a.29.29,0,0,1,.41-.15l7.63,3.59c3.91,1.84,5.34,5.51,3.7,9a6.18,6.18,0,0,1-5.91,3.71l.22,9.32a.23.23,0,0,1-.35.24Zm5.9-13.34a2.57,2.57,0,0,0-1.47-3.58l-3.38-1.59a.17.17,0,0,0-.25.09l-2.08,4.42a.17.17,0,0,0,.09.25L264,65.66A2.56,2.56,0,0,0,267.69,64.49Z" fill="#002d44"/><path d="M268.58,78.36a.38.38,0,0,1,.26-.46l3.45-1a.32.32,0,0,1,.41.23A9,9,0,0,0,276.17,82c1.85,1.2,3.45,1,4.26-.24.68-1,.47-2.1-1.46-3.76l-.85-.74c-3.29-2.82-4.2-5.82-2.18-9s6-3.85,9.81-1.37a12,12,0,0,1,4.84,5.75c.08.21,0,.33-.21.43l-3.12,1.35a.32.32,0,0,1-.42-.16,8.81,8.81,0,0,0-3.25-4c-1.57-1-2.9-.72-3.63.4s-.35,2.15,1.51,3.75l.85.74c3.34,2.86,4.19,5.78,2.12,9s-6,4.06-10.59,1.08A12.4,12.4,0,0,1,268.58,78.36Z" fill="#002d44"/><path d="M300.62,78.62a.39.39,0,0,1,.51,0l3,2.55a.39.39,0,0,1,.1.5l-7.9,20.25c-.08.18-.2.23-.37.09l-3.07-2.63a.37.37,0,0,1-.11-.49l1.49-3.61-5.63-4.81-3.3,2.05a.38.38,0,0,1-.51,0l-3.1-2.65c-.16-.14-.13-.27,0-.38Zm-4.79,12.92,3-7.18-.07-.06-6.63,4.07Z" fill="#002d44"/><path d="M312.73,89.6a.3.3,0,0,1,.44,0l2.65,2.93a.3.3,0,0,1,0,.44l-12.31,11.1a.17.17,0,0,0,0,.26l6.25,6.93a.29.29,0,0,1,0,.44l-2.56,2.32a.3.3,0,0,1-.44,0l-9.23-10.23a.3.3,0,0,1,0-.44Z" fill="#002d44"/><path d="M318.52,131.53a.44.44,0,0,1,0-.56l4.68-7.17-1.49-2.41a.17.17,0,0,0-.26-.06l-6.43,4a.28.28,0,0,1-.42-.1l-2.08-3.36a.29.29,0,0,1,.1-.43l17.46-10.8a.29.29,0,0,1,.43.1l4.43,7.17c2.28,3.68,1.48,7.54-1.8,9.57a6.21,6.21,0,0,1-7-.11l-4.9,7.93a.24.24,0,0,1-.43,0Zm12.23-8a2.57,2.57,0,0,0,.72-3.81l-2-3.18a.17.17,0,0,0-.26-.06l-4.15,2.57a.16.16,0,0,0-.06.26l2,3.17A2.57,2.57,0,0,0,330.75,123.57Z" fill="#002d44"/><path d="M340.66,128.73a.3.3,0,0,1,.42.14l1.73,3.55a.3.3,0,0,1-.14.42l-18.44,9a.31.31,0,0,1-.42-.14l-1.73-3.55a.3.3,0,0,1,.14-.42Z" fill="#002d44"/><path d="M335.31,140.94c2.95-1.1,4.1-1.39,5.63-1.46,3.59-.17,6.21,2,7.52,5.5,1.37,3.7.43,6.81-1.61,8.63a.32.32,0,0,1-.48,0L343.9,151a.32.32,0,0,1,0-.46,3.88,3.88,0,0,0,.78-4.17,3.28,3.28,0,0,0-3.4-2.36,30,30,0,0,0-8.48,3.15,3.29,3.29,0,0,0-1,4,3.34,3.34,0,0,0,3.22,2.42,7.54,7.54,0,0,0,2-.49.17.17,0,0,0,.11-.24l-1-2.69a.29.29,0,0,1,.19-.39l2.8-1a.3.3,0,0,1,.4.18l2.53,6.82a.3.3,0,0,1-.18.4l-1.64.61a16.89,16.89,0,0,1-4.64,1.16c-3.55.19-6.34-1.89-7.64-5.39s-.73-6.87,2.1-9.08A17.31,17.31,0,0,1,335.31,140.94Z" fill="#002d44"/><path d="M352.31,158.43a.29.29,0,0,1,.37.24l.84,3.86a.3.3,0,0,1-.24.37l-7.75,1.68a.16.16,0,0,0-.14.22l1.46,6.75a.16.16,0,0,0,.22.14l7.75-1.68a.3.3,0,0,1,.37.24l.84,3.86a.3.3,0,0,1-.24.37l-20.06,4.35a.3.3,0,0,1-.37-.24l-.84-3.86a.3.3,0,0,1,.24-.37l8-1.73c.13,0,.17-.1.15-.22l-1.47-6.75a.16.16,0,0,0-.22-.14l-8,1.73a.3.3,0,0,1-.37-.24l-.84-3.86a.3.3,0,0,1,.24-.37Z" fill="#002d44"/><path d="M336.18,186.89a.3.3,0,0,1,.29-.34L353,185.22a.17.17,0,0,0,.17-.2l-.43-5.33a.29.29,0,0,1,.28-.34l3.44-.28a.3.3,0,0,1,.34.29L358.06,195a.3.3,0,0,1-.29.34l-3.44.28a.29.29,0,0,1-.33-.29l-.44-5.33c0-.13-.07-.18-.2-.17l-16.52,1.33a.3.3,0,0,1-.34-.28Z" fill="#002d44"/><path d="M103.7,296.2a.34.34,0,0,1,.51,0l3.31,2.79a.56.56,0,0,1,.21.65l-4.34,14.82.11.09,13.81-6.8a.55.55,0,0,1,.68.1l3.25,2.74a.35.35,0,0,1,0,.51l-15.5,18.33a.34.34,0,0,1-.51.05l-3.14-2.66a.34.34,0,0,1,0-.51l9-10.64-.11-.09-10.24,5a.69.69,0,0,1-.83-.08L98,318.85a.71.71,0,0,1-.22-.81L101,307.11l-.11-.09-9,10.63a.35.35,0,0,1-.52.05L88.25,315a.34.34,0,0,1,0-.51Z" fill="#002d44"/><path d="M116.33,326,124,312.75a.35.35,0,0,1,.5-.14l4,2.32a.34.34,0,0,1,.13.49l-7.73,13.35c-1.47,2.55-.89,4.82,1.28,6.08s4.39.61,5.87-1.94l7.72-13.35a.34.34,0,0,1,.5-.13l4,2.31a.34.34,0,0,1,.13.5l-7.65,13.22c-3.08,5.32-8.16,6.25-12.94,3.48S113.25,331.29,116.33,326Z" fill="#002d44"/><path d="M143.45,323.56a.34.34,0,0,1,.47-.2l4.31,1.68a.34.34,0,0,1,.2.47l-7.06,18.06a.18.18,0,0,0,.12.28l10.16,4a.35.35,0,0,1,.21.47l-1.47,3.76a.35.35,0,0,1-.48.2l-15-5.87a.34.34,0,0,1-.21-.47Z" fill="#002d44"/><path d="M161.06,330.19a.34.34,0,0,1,.44-.26L166,331a.34.34,0,0,1,.27.43l-4.49,18.86a.2.2,0,0,0,.16.27l10.62,2.52a.35.35,0,0,1,.27.44l-.94,3.93a.34.34,0,0,1-.43.27L155.77,354a.35.35,0,0,1-.27-.44Z" fill="#002d44"/><path d="M180.69,358.87a.46.46,0,0,1-.43-.41L175,333.79c-.05-.26.11-.39.37-.37l4.7.51a.44.44,0,0,1,.43.41L183.69,351h.11l6.5-15.62a.43.43,0,0,1,.51-.31l4.66.5a.28.28,0,0,1,.25.43l-10.37,23a.46.46,0,0,1-.47.32Z" fill="#002d44"/><path d="M202.41,335.64a.48.48,0,0,1,.46-.38l4.58-.17a.48.48,0,0,1,.49.35l9.24,23.68c.08.21,0,.36-.24.37l-4.72.18a.44.44,0,0,1-.49-.35l-1.58-4.27-8.65.32-1.22,4.37a.42.42,0,0,1-.46.38l-4.76.18c-.25,0-.33-.13-.27-.35Zm6.12,14.92L205.41,342h-.11l-2.48,8.75Z" fill="#002d44"/><path d="M217.8,334.79a.34.34,0,0,1,.28-.43l9-1.8c4.25-.85,7.57.38,9.47,3.78.7,1.27,1.19,2.58,2,6.54s.85,5.36.69,6.8c-.45,3.88-3.05,6.29-7.29,7.14l-9,1.8a.35.35,0,0,1-.43-.29Zm9.3,18.14,2.75-.55c2.42-.49,3.74-1.49,4-3.58.1-.76.06-1.72-.57-4.85s-1-4-1.34-4.71c-1-1.84-2.61-2.26-5-1.77l-2.75.54a.2.2,0,0,0-.17.26l2.89,14.49A.2.2,0,0,0,227.1,352.93Z" fill="#002d44"/><path d="M261.12,347.94a.46.46,0,0,1-.57-.15l-16.68-18.93c-.16-.21-.09-.4.15-.5l4.34-1.87a.45.45,0,0,1,.58.15l10.94,13,.1,0-2-16.81a.44.44,0,0,1,.29-.52l4.31-1.85a.29.29,0,0,1,.43.26l2.23,25.13a.45.45,0,0,1-.26.5Z" fill="#002d44"/><path d="M277.49,340.27a.34.34,0,0,1-.5-.11l-12.7-20.38a.35.35,0,0,1,.12-.5l8.15-5.08c4.57-2.85,9-1.81,11.53,2.2s1.41,8.46-3.12,11.29L277.23,330a.19.19,0,0,0-.07.3l4.37,7a.35.35,0,0,1-.12.5Zm2.06-21c-1.06-1.7-2.91-2.13-4.83-.93l-3.45,2.15a.19.19,0,0,0-.07.3l3.29,5.28a.19.19,0,0,0,.3.07l3.45-2.15C280.16,322.75,280.61,320.93,279.55,319.23Z" fill="#002d44"/><path d="M281.72,308.69a.35.35,0,0,1,0-.52l3.29-2.86a.67.67,0,0,1,.71-.13l16.8,6,.14-.12-10.22-11.75a.35.35,0,0,1,0-.51l3.1-2.7a.34.34,0,0,1,.51,0l15.76,18.12a.35.35,0,0,1,0,.51l-3.27,2.84a.63.63,0,0,1-.7.13l-16.81-6-.14.12,10.19,11.72a.34.34,0,0,1,0,.51l-3.1,2.7a.35.35,0,0,1-.52,0Z" fill="#002d44"/></svg>