<svg enable-background="new 0.313 0 415 416" height="416" viewBox=".313 0 415 416" width="415" xmlns="http://www.w3.org/2000/svg" xmlns:xlink="http://www.w3.org/1999/xlink"><clipPath id="a"><path d="m.313 0h414.978v416.278h-414.978z"/></clipPath><circle clip-path="url(#a)" cx="207.646" cy="208.633" fill="#192e45" r="207.646"/><path clip-path="url(#a)" clip-rule="evenodd" d="m74.122 188.808 11.709-16.367c.033.08-.737 23.565-.737 23.565l3.294-17.745c9.776 19.78 33.638 47.15 55.515 61.714 2.362 1.574 4.213 3.245 5.642 5.002 2.755 1.063 5.608 1.688 8.446 2.162 1.492.264 3.019.38 4.509.511 1.493.097 3.001.147 4.494.114 1.491-.034 2.968-.1 4.444-.245 1.493-.132 2.952-.361 4.41-.608 1.462-.263 2.904-.541 4.332-.917 1.424-.379 2.853-.772 4.247-1.265 1.394-.425 2.788-.951 4.148-1.492 1.379-.558 2.722-1.146 4.052-1.787 1.328-.673 2.657-1.296 3.952-2.016 1.33-.656 2.591-1.428 3.903-2.15 1.328-.672 2.542-1.54 3.856-2.263 1.294-.738 2.524-1.606 3.836-2.345 1.262-.819 2.524-1.64 3.837-2.427 1.263-.837 2.577-1.64 3.92-2.411l1.213-.721.641.426 8.824 5.837-8.906-2.311c-.838 1-1.723 1.982-2.642 2.934-1.113 1.133-2.297 2.214-3.476 3.266-1.23 1.031-2.478 2.018-3.757 2.984-1.309.917-2.623 1.854-4 2.673-2.723 1.706-5.609 3.164-8.61 4.379-1.492.606-3.017 1.164-4.543 1.672-1.541.51-3.083.985-4.674 1.36-1.558.396-3.167.673-4.755.937-1.608.246-3.215.41-4.822.556-3.231.166-6.478.082-9.659-.328-1.608-.213-3.182-.522-4.74-.885-1.542-.376-3.083-.82-4.576-1.378-2.623-.934-5.165-2.146-7.462-3.704-.016.031-8.462 1.179-5.051 7.525 3.412 6.315 8.562 5.757 6.134 13.201-1.706 3.97-4.131 7.891-6.823 11.564-5.561 7.609-14.366 14.251-13.498 18.253 39.957 49.176 129.877 42.335 164.032-1.527-.523-6.347-10.48-9.379-17.464-24.861 1.916.59 4.836 1.477 4.836 1.36 0-.112-8.331-13.546-8.61-14.891l5.33.362s-7.134-8.792-7.266-9.611l7.165-.917s-9.02-10.381-9.168-11.201l9.168 1.458-10.034-12.102h4.723l-5.641-8.199c-.969-.313-1.919-.609-2.87-.903-1.23-.393-2.46-.77-3.677-1.147-13.724-4.247-26.565-8.232-39.028-16.022-17.45-10.923-33.095-24.173-44.835-34.571l-23.585-11.447c-22.582-1.689-43.853-1.132-56.76 1.427l8.299-14.219-12.694 15.267c-.902-.195-1.115-.769-1.115-.769l.869-18.794-4.001 16.988c-1.265-.557-2.657-.884-4.116-.884-5.627 0-10.185 4.558-10.185 10.166 0 5.119 3.805 9.366 8.758 10.055z" fill="#cf9239" fill-rule="evenodd"/><path clip-path="url(#a)" clip-rule="evenodd" d="m88.378 151.74c-1.252-.546-2.629-.864-4.071-.864-5.627 0-10.185 4.557-10.185 10.166 0 4.936 3.539 9.062 8.233 9.968.074-.017.144-.035.21-.057 3.061-1.02 9.184-9.184 8.163-14.286-.364-1.818-1.164-3.507-2.35-4.927" fill="#fecc86" fill-rule="evenodd"/><path clip-path="url(#a)" d="m289.139 134.459c-10.136-26.486-49.544-45.624-76.487-34.917-4.855 1.937-7.695 4.183-11.532 7.626-1.214-.458-3.884-.766-5.23-.766-6.641 0-13.676 6.26-17.318 14.642-2.622 6.035-3.067 12.562-1.247 17.564-9.545 2.065-30.93-.426-36.555-.426.461.231.92.441 1.378.672l39.162 18.614.345.328c11.594 10.266 27.093 23.435 44.263 34.193 10.776 6.724 49.266 18.793 51.152 19.237-4.592-11.447 7.821-26.617 11.283-37.144 4.165-12.727 5.658-26.85.786-39.623m-82.747-2.102c-3.311 7.659-9.756 13.006-15.676 13.006-1.296 0-2.526-.245-3.61-.737-2.36-1.017-4.197-3.035-5.296-5.822-1.836-4.659-1.427-10.89 1.081-16.68 3.346-7.659 9.793-13.006 15.695-13.006 1.246 0 2.476.248 3.624.74 3.134 1.361 5.299 4.444 6.084 8.707.806 4.249.132 9.151-1.902 13.792" fill="#fbd224"/><g fill="#fff"><path clip-path="url(#a)" d="m190.715 141.599c-.766 0-1.476-.139-2.053-.401-1.866-.805-2.845-2.494-3.35-3.775-1.453-3.686-1.058-8.976 1.033-13.804 2.716-6.217 7.866-10.737 12.241-10.737.746 0 1.466.147 2.142.436 1.937.841 3.315 2.949 3.864 5.928.67 3.536.083 7.649-1.648 11.6-2.697 6.238-7.836 10.753-12.229 10.753"/><path clip-path="url(#a)" d="m40.02 201.593c-.04.224-.217.347-.441.306l-24.664-4.439c-.224-.041-.347-.217-.307-.441l1.776-9.866c.995-5.531 4.921-8.258 9.778-7.384 4.783.861 7.542 4.83 6.553 10.324l-.814 4.522c-.027.149.035.237.184.264l8.483 1.527c.224.04.347.217.307.441zm-14.847-16.33c-2.055-.37-3.687.764-4.104 3.081l-.753 4.185c-.027.15.034.238.183.265l6.391 1.15c.15.027.239-.035.264-.184l.754-4.185c.417-2.317-.679-3.942-2.735-4.312"/><path clip-path="url(#a)" d="m45.957 165.153c-.075.333-.212.419-.497.47l-10.208 2.232-.767 3.369c-.034.148.023.239.172.273l8.997 2.05c.222.051.336.233.286.455l-1.072 4.703c-.051.222-.232.336-.454.286l-24.438-5.57c-.223-.051-.337-.233-.287-.455l2.288-10.035c1.172-5.146 5.17-7.819 9.762-6.772 3.221.735 5.388 3.02 5.977 6.075l11.054-2.7c.248-.06.445.102.385.361zm-17.459-3.551c-1.889-.431-3.414.624-3.887 2.698l-1.012 4.443c-.034.148.023.239.171.273l5.813 1.325c.149.033.239-.024.273-.172l1.013-4.443c.473-2.074-.446-3.685-2.371-4.124"/><path clip-path="url(#a)" d="m24.322 148.616c-.215-.072-.311-.265-.239-.481l1.535-4.572c.073-.216.265-.312.481-.239l23.76 7.975c.216.072.312.265.239.481l-1.535 4.571c-.072.217-.264.312-.48.24z"/><path clip-path="url(#a)" d="m54.227 141.222c-.108.243-.31.32-.548.296l-26.195-2.709c-.274-.04-.351-.24-.242-.483l2.012-4.508c.108-.242.274-.335.548-.296l17.57 2.187.047-.103-13.422-11.481c-.213-.177-.255-.363-.146-.606l1.996-4.473c.092-.208.294-.284.505-.107l19.509 17.69c.177.162.254.363.161.571z"/><path clip-path="url(#a)" d="m41.774 109.632c-.155-.183-.206-.392-.067-.619l2.49-4.087c.137-.226.347-.277.581-.224l25.951 5.582c.234.053.325.197.186.424l-2.569 4.217c-.139.227-.314.298-.581.224l-4.63-1.087-4.702 7.72 3.107 3.584c.188.203.207.392.068.619l-2.589 4.249c-.137.227-.307.213-.462.029zm16.517 3.258-9.241-2.206-.059.098 6.198 7.2z"/><path clip-path="url(#a)" d="m61.361 102.145c-3.114-2.488-4.058-3.437-5.008-4.924-2.438-3.699-2.037-7.607.783-11.137 2.724-3.411 6.376-4.575 10.095-3.451.22.03.32.207.238.432l-1.13 4.395c-.053.249-.231.35-.48.297-1.755-.479-3.494-.312-4.844 1.379-1.257 1.571-1.232 3.244-.192 4.803.552.83 1.193 1.487 4.07 3.786s3.66 2.778 4.591 3.134c1.75.668 3.386.324 4.642-1.248 1.351-1.691 1.131-3.423.276-5.029-.108-.231-.048-.427.183-.534l4.037-2.071c.201-.131.397-.072.474.136 1.918 3.378 1.588 7.197-1.138 10.608-2.82 3.53-6.543 4.783-10.688 3.221-1.661-.598-2.794-1.309-5.909-3.797"/><path clip-path="url(#a)" d="m89.446 89.272c-.163.159-.377.156-.537-.007l-6.917-7.1-16.041-5.526c-.188-.084-.265-.273-.075-.458l3.537-3.446c.19-.185.405-.236.672-.125l9.919 3.486.082-.079-3.227-10.006c-.104-.27-.048-.484.142-.669l3.428-3.34c.191-.185.405-.129.456.087l5.106 16.181 6.917 7.099c.16.164.157.379-.007.537z"/><path clip-path="url(#a)" d="m91.511 53.781c-.135-.184-.103-.396.081-.531l3.884-2.858c.183-.135.396-.102.53.081l14.851 20.184c.134.184.102.396-.081.531l-3.884 2.857c-.184.135-.396.103-.53-.08z"/><path clip-path="url(#a)" d="m111.847 66.301c-.208-.052-.41-.242-.364-.535l.781-4.317c.033-.24.229-.357.47-.324 2.167.296 4.819.214 7.165-1.189 2.314-1.385 2.975-3.239 2.039-4.804-.78-1.304-2.05-1.65-4.904-.43l-1.27.539c-4.869 2.071-8.646 1.454-10.984-2.457-2.437-4.074-.992-8.611 3.798-11.477 2.934-1.755 6.198-2.512 8.914-2.19.272.014.383.125.357.451l-.214 4.154c-.033.241-.177.371-.398.371-2.358-.094-4.338.293-6.163 1.385-1.956 1.17-2.361 2.785-1.523 4.186.76 1.271 2.16 1.54 4.917.378l1.271-.539c4.932-2.11 8.591-1.467 10.989 2.542 2.398 4.008 1.207 8.748-4.529 12.179-3.455 2.067-7.631 2.706-10.352 2.077"/><path clip-path="url(#a)" d="m138.927 27.419c-.007-.24.084-.435.333-.526l4.493-1.644c.249-.092.445-.001.594.186l16.813 20.533c.15.188.13.357-.119.448l-4.636 1.696c-.249.092-.431.037-.594-.187l-2.943-3.734-8.487 3.106.199 4.739c.02.276-.084.434-.333.526l-4.672 1.709c-.249.091-.373-.025-.38-.265zm10.884 12.837-5.851-7.481-.106.038.36 9.491z"/><path clip-path="url(#a)" d="m170.175 34.442-2.492-15.755c-.035-.224.091-.398.316-.433l4.764-.754c.225-.036.399.09.434.316l2.516 15.904c.481 3.038 2.441 4.496 5.03 4.087 2.55-.403 3.965-2.396 3.485-5.434l-2.515-15.905c-.036-.224.09-.398.316-.434l4.763-.754c.225-.035.399.092.435.316l2.491 15.755c1.002 6.34-2.502 10.431-8.205 11.333-5.739.907-10.335-1.903-11.338-8.242"/><path clip-path="url(#a)" d="m194.743 14.966c-.003-.228.146-.382.374-.386l4.555-.074c.266-.005.495.105.652.368l9.377 16.099.19-.004-.268-16.247c-.004-.228.146-.382.374-.386l4.289-.07c.229-.004.384.145.388.373l.409 25.055c.005.228-.145.382-.372.386l-4.518.074c-.305.005-.496-.106-.652-.369l-9.415-16.06-.19.003.266 16.21c.004.228-.146.382-.373.386l-4.29.07c-.228.004-.381-.145-.385-.373z"/><path clip-path="url(#a)" d="m221.534 15.246c.021-.227.186-.365.412-.346l4.806.411c.227.02.364.184.346.412l-2.138 24.972c-.021.227-.184.365-.41.346l-4.807-.412c-.227-.019-.364-.183-.347-.41z"/><path clip-path="url(#a)" d="m235.799 42.559c-.261-.048-.384-.224-.417-.462l-3.563-26.093c-.027-.275.149-.397.411-.349l4.856.888c.26.048.391.187.417.462l2.031 17.59.113.021 7.979-15.758c.122-.248.292-.332.555-.284l4.817.881c.224.042.347.218.224.466l-12.572 23.14c-.116.21-.293.332-.518.291z"/><path clip-path="url(#a)" d="m258.398 21.349c.068-.217.261-.315.477-.246l15.771 5.03c.218.07.315.26.246.478l-1.234 3.87c-.069.217-.261.315-.478.246l-10.599-3.38c-.145-.047-.24.002-.286.147l-1.557 4.883c-.047.145.003.24.146.286l8.826 2.816c.218.069.315.26.247.477l-1.224 3.834c-.069.217-.26.316-.478.246l-8.825-2.815c-.145-.046-.24.003-.287.148l-1.626 5.1c-.046.145.003.24.148.287l10.598 3.38c.217.069.316.26.246.477l-1.235 3.87c-.068.218-.26.316-.476.247l-15.772-5.031c-.217-.069-.314-.26-.245-.477z"/><path clip-path="url(#a)" d="m283.18 58.119c-.31-.146-.365-.297-.354-.586l.004-10.448-3.127-1.471c-.138-.064-.238-.028-.304.109l-3.927 8.351c-.097.207-.299.279-.506.182l-4.364-2.053c-.207-.097-.28-.298-.182-.504l10.667-22.682c.097-.206.299-.279.505-.182l9.313 4.381c4.777 2.246 6.532 6.723 4.528 10.984-1.406 2.99-4.101 4.617-7.213 4.539l.273 11.376c.007.255-.193.412-.435.299zm7.202-16.295c.824-1.753.121-3.468-1.804-4.374l-4.124-1.939c-.138-.065-.239-.028-.304.109l-2.538 5.395c-.063.138-.026.239.11.303l4.124 1.94c1.925.905 3.696.353 4.536-1.434"/><path clip-path="url(#a)" d="m291.453 58.769c-.045-.21.036-.475.318-.562l4.218-1.209c.229-.076.422.047.499.278.692 2.076 1.937 4.417 4.232 5.902 2.265 1.464 4.221 1.236 5.21-.295.825-1.276.575-2.568-1.781-4.588l-1.046-.902c-4.009-3.451-5.124-7.11-2.65-10.937 2.578-3.986 7.286-4.695 11.974-1.665 2.87 1.855 4.992 4.448 5.902 7.027.109.251.06.399-.245.519l-3.821 1.644c-.229.078-.411.006-.509-.193-.956-2.156-2.18-3.761-3.966-4.915-1.913-1.237-3.541-.888-4.427.484-.805 1.244-.428 2.618 1.834 4.577l1.045.901c4.071 3.493 5.112 7.059 2.578 10.981-2.536 3.922-7.315 4.948-12.929 1.32-3.379-2.185-5.797-5.648-6.436-8.367"/><path clip-path="url(#a)" d="m330.579 59.066c.206-.124.42-.141.622.032l3.639 3.109c.2.173.218.388.127.61l-9.648 24.729c-.091.223-.247.289-.448.117l-3.753-3.209c-.203-.173-.244-.358-.129-.609l1.812-4.398-6.871-5.874-4.034 2.497c-.231.154-.42.141-.623-.032l-3.781-3.233c-.201-.173-.16-.337.045-.461zm-5.85 15.786 3.65-8.771-.087-.074-8.096 4.97z"/><path clip-path="url(#a)" d="m345.387 72.514c.169-.152.384-.142.536.028l3.229 3.583c.152.169.142.384-.027.537l-15.039 13.552c-.113.102-.118.21-.018.322l7.629 8.464c.152.169.142.383-.027.536l-3.133 2.823c-.17.152-.384.141-.535-.029l-11.265-12.499c-.152-.169-.142-.384.027-.536z"/><path clip-path="url(#a)" d="m352.445 123.697c-.18-.29-.143-.447.023-.684l5.706-8.749-1.817-2.938c-.08-.13-.184-.155-.314-.075l-7.847 4.852c-.194.119-.403.07-.522-.124l-2.535-4.102c-.12-.193-.07-.402.124-.522l21.313-13.175c.194-.119.402-.07.523.123l5.409 8.752c2.773 4.489 1.801 9.197-2.202 11.672-2.811 1.737-5.956 1.628-8.521-.135l-5.979 9.678c-.134.216-.389.239-.527.013zm14.926-9.717c1.647-1.018 1.994-2.839.876-4.648l-2.396-3.875c-.08-.13-.185-.154-.313-.074l-5.069 3.134c-.13.08-.154.184-.074.313l2.396 3.876c1.116 1.809 2.901 2.313 4.58 1.274"/><path clip-path="url(#a)" d="m379.46 120.256c.204-.1.408-.03.509.175l2.119 4.332c.101.205.03.408-.174.508l-22.517 11.017c-.205.1-.408.031-.509-.174l-2.119-4.333c-.101-.205-.03-.408.174-.508z"/><path clip-path="url(#a)" d="m372.931 135.16c3.599-1.333 5.003-1.693 6.875-1.779 4.379-.206 7.579 2.415 9.177 6.724 1.678 4.522.53 8.31-1.969 10.533-.173.185-.399.229-.587.055l-3.015-3.216c-.164-.223-.158-.428-.006-.565 1.28-1.569 1.687-3.096.946-5.09-.766-2.066-2.273-2.965-4.145-2.878-.961.031-2.14.347-5.309 1.522-3.171 1.175-4.306 1.718-5.055 2.319-1.476 1.156-1.983 2.843-1.205 4.944.674 1.816 2.146 3.053 3.933 2.957.671-.046 1.458-.217 2.491-.6.143-.052.188-.15.135-.293l-1.215-3.276c-.079-.213.01-.409.224-.488l3.419-1.268c.213-.079.408.011.488.225l3.089 8.333c.08.213-.01.408-.224.487l-1.994.74c-2.138.792-4.197 1.354-5.672 1.415-4.331.228-7.744-2.314-9.329-6.587-1.598-4.309-.881-8.382 2.574-11.081 1.477-1.155 2.777-1.799 6.374-3.133"/><path clip-path="url(#a)" d="m393.694 156.555c.223-.048.403.067.452.291l1.021 4.714c.048.223-.069.403-.291.452l-9.467 2.048c-.148.033-.205.123-.174.271l1.783 8.241c.032.149.123.207.271.174l9.466-2.048c.223-.048.402.068.452.291l1.019 4.714c.049.223-.067.403-.289.452l-24.5 5.302c-.224.049-.404-.068-.453-.291l-1.019-4.714c-.049-.223.066-.403.29-.451l9.726-2.105c.149-.032.206-.123.174-.272l-1.783-8.24c-.031-.149-.122-.207-.271-.175l-9.725 2.105c-.224.048-.404-.068-.452-.291l-1.021-4.714c-.048-.222.068-.403.291-.452z"/><path clip-path="url(#a)" d="m373.992 191.291c-.019-.228.122-.391.348-.409l20.176-1.618c.151-.013.222-.094.209-.246l-.521-6.51c-.02-.227.121-.391.348-.409l4.201-.337c.227-.018.391.121.41.348l1.525 19.04c.02.227-.119.391-.347.409l-4.202.337c-.227.018-.39-.121-.409-.348l-.522-6.511c-.011-.152-.093-.221-.245-.209l-20.176 1.618c-.228.019-.391-.121-.408-.348z"/><path clip-path="url(#a)" d="m90.904 325.431c.171-.204.421-.226.625-.056l4.057 3.388c.272.228.358.472.26.795l-5.181 18.122.136.113 16.805-8.414c.301-.154.557-.113.83.114l3.988 3.33c.204.171.227.421.056.626l-18.786 22.495c-.171.205-.421.228-.626.057l-3.851-3.216c-.205-.172-.228-.422-.057-.625l10.902-13.056-.137-.114-12.463 6.196c-.392.193-.711.158-1.017-.098l-2.353-1.964c-.306-.257-.397-.563-.277-.984l3.874-13.368-.136-.113-10.901 13.054c-.171.205-.421.227-.626.056l-3.852-3.216c-.204-.171-.227-.421-.056-.625z"/><path clip-path="url(#a)" d="m106.518 361.663 9.248-16.199c.131-.231.374-.298.606-.165l4.897 2.796c.232.132.298.374.166.605l-9.335 16.354c-1.784 3.124-1.061 5.889 1.601 7.408 2.622 1.497 5.37.714 7.154-2.41l9.335-16.353c.132-.232.374-.299.606-.166l4.898 2.797c.232.131.298.373.166.605l-9.247 16.198c-3.721 6.519-9.912 7.688-15.775 4.343-5.901-3.369-8.041-9.295-4.32-15.813"/><path clip-path="url(#a)" d="m139.611 358.526c.096-.248.325-.352.574-.256l5.264 2.025c.249.095.351.326.255.574l-8.498 22.093c-.064.165-.013.28.153.344l12.435 4.783c.248.096.35.326.255.574l-1.77 4.601c-.096.25-.326.352-.574.256l-18.363-7.063c-.248-.096-.35-.325-.254-.574z"/><path clip-path="url(#a)" d="m161.163 366.489c.06-.259.273-.393.532-.332l5.496 1.271c.26.061.392.272.333.532l-5.337 23.063c-.04.174.027.28.2.32l12.981 3.004c.259.06.393.272.333.533l-1.112 4.803c-.06.26-.273.393-.532.332l-19.17-4.435c-.26-.061-.392-.274-.332-.533z"/><path clip-path="url(#a)" d="m185.312 401.349c-.31-.03-.468-.225-.53-.499l-6.6-30.087c-.057-.318.138-.477.447-.446l5.745.581c.309.031.473.181.529.501l4.017 20.316.133.013 7.826-19.119c.12-.301.31-.415.619-.383l5.701.575c.265.026.424.222.304.522l-12.49 28.156c-.116.256-.31.415-.575.388z"/><path clip-path="url(#a)" d="m211.748 372.831c.078-.271.248-.454.559-.469l5.592-.241c.311-.013.495.157.596.419l11.47 28.849c.101.263.02.443-.291.458l-5.769.249c-.311.013-.494-.113-.596-.42l-1.958-5.206-10.563.456-1.459 5.354c-.075.313-.247.454-.557.468l-5.814.251c-.31.014-.407-.16-.33-.431zm7.587 18.168-3.873-10.414-.133.006-2.961 10.709z"/><path clip-path="url(#a)" d="m230.526 371.682c-.054-.261.084-.471.345-.524l11.003-2.27c5.177-1.067 9.243.406 11.593 4.546.862 1.545 1.465 3.145 2.46 7.972.996 4.827 1.076 6.534.895 8.294-.52 4.731-3.673 7.694-8.848 8.762l-11.003 2.27c-.261.054-.472-.084-.525-.345zm11.489 22.068 3.349-.69c2.957-.609 4.562-1.848 4.808-4.392.125-.933.065-2.099-.725-5.927-.789-3.826-1.196-4.922-1.68-5.729-1.232-2.239-3.195-2.741-6.152-2.132l-3.349.69c-.174.036-.243.142-.207.315l3.642 17.656c.035.177.14.245.314.209"/><path clip-path="url(#a)" d="m263.296 388.593c-.083-.254.032-.478.285-.56l5.026-1.628c.254-.083.479.031.561.285l1.642 5.069c.083.253-.032.477-.285.559l-5.026 1.629c-.254.083-.479-.032-.561-.285z"/><path clip-path="url(#a)" d="m265.992 362.77c-.11-.241-.023-.478.219-.589l4.845-2.217c.283-.13.581-.12.872.089l17.601 12.845.201-.093-7.91-17.279c-.11-.242-.023-.479.219-.59l4.562-2.088c.243-.11.479-.022.591.22l12.197 26.646c.111.242.023.479-.219.589l-4.805 2.2c-.323.147-.58.118-.871-.09l-17.623-12.786-.201.092 7.892 17.241c.111.242.023.477-.219.588l-4.563 2.089c-.242.11-.478.022-.588-.22z"/><path clip-path="url(#a)" d="m290.786 350.883c-.147-.222-.098-.468.125-.615l16.159-10.672c.222-.147.468-.097.614.126l2.619 3.965c.147.222.098.469-.126.616l-10.857 7.172c-.148.097-.173.22-.076.368l3.305 5.003c.099.148.22.174.369.075l9.043-5.972c.222-.146.468-.097.615.125l2.594 3.929c.147.223.097.469-.126.615l-9.042 5.973c-.148.099-.173.222-.075.369l3.451 5.226c.098.148.221.174.369.076l10.859-7.173c.222-.146.468-.097.614.126l2.619 3.966c.147.222.096.468-.126.615l-16.157 10.672c-.223.146-.469.097-.615-.125z"/><path clip-path="url(#a)" d="m335.034 355.469c-.198.176-.451.161-.627-.039l-15.685-17.728c-.118-.133-.244-.141-.376-.022l-5.722 5.062c-.199.177-.45.162-.627-.039l-3.267-3.69c-.176-.2-.161-.45.039-.626l16.729-14.805c.2-.176.451-.161.627.039l3.267 3.692c.177.199.162.449-.038.627l-5.72 5.061c-.135.118-.142.243-.023.376l15.686 17.728c.177.199.161.45-.038.627z"/><path clip-path="url(#a)" d="m56.947 298.015c-11.619-19.29-19.335-40.445-22.935-62.881-1.254-7.827-1.968-15.89-2.121-23.966l-6.122.116c.158 8.36.898 16.711 2.199 24.819 3.724 23.213 11.709 45.105 23.734 65.07 5.914 9.82 12.515 18.761 20.178 27.332l4.564-4.081c-7.405-8.281-13.783-16.92-19.497-26.409"/><path clip-path="url(#a)" d="m383.78 211.177c-.493 30.542-8.99 59.73-25.258 86.754-5.744 9.541-12.138 18.218-19.548 26.526l4.569 4.075c7.667-8.597 14.281-17.572 20.225-27.443 16.831-27.96 25.624-58.178 26.134-89.813z"/></g></svg>