<svg xmlns="http://www.w3.org/2000/svg" height="174.47" width="362.413" data-name="Layer 1" id="Layer_1"><defs id="defs10"><style id="style2">.cls-1{fill:#fff}.cls-3{fill:#282828}</style><mask maskUnits="userSpaceOnUse" height="59.02" width="36.48" y="247.98" x="200" id="mask"><g id="mask-2"><path class="cls-1" id="path-1" fill="#fff" d="M200 307v-59.02h36.48V307z"/></g></mask><mask maskUnits="userSpaceOnUse" height="58.8" width="38.7" y="248.03" x="361.3" id="mask-2-2"><g id="mask-4"><path class="cls-1" id="path-3" fill="#fff" d="M361.3 306.83v-58.8H400v58.8z"/></g></mask></defs><g transform="translate(-47.64 -142.53)" data-name="Var3 Black Transp" id="Var3_Black_Transp"><g id="Variation-3"><g id="Logotype"><g id="Group-3"><g id="g15" mask="url(#mask)"><path d="M218.27 254.46a29.13 29.13 0 0 0-4.22.29 7.74 7.74 0 0 0-6.84 7.76v16.57c0 4.07 3.34 7.28 7.94 7.64 1.06.08 2.12.12 3.14.12s1.91 0 2.82-.11c4.77-.37 7.69-3 8.22-7.42a94.81 94.81 0 0 0 0-17.43c-.4-3.05-2.35-6.51-6.66-7.12a32.49 32.49 0 0 0-4.4-.3zM206.13 307c-2.12 0-6.13-1.15-6.13-5.51v-41.33c0-4.17 3.13-7.78 5.23-9.18a21.51 21.51 0 0 1 8.17-2.65 49.1 49.1 0 0 1 5.46-.35 27.24 27.24 0 0 1 6.18.66c6.05 1.4 9.73 5.3 10.94 11.59a27.9 27.9 0 0 1 .43 4.85v1.56c0 3.54.11 7.19-.06 10.78a21.9 21.9 0 0 1-1.3 6.54c-1.81 4.9-5.54 7.91-11.08 8.93a26.81 26.81 0 0 1-4.78.43 31.38 31.38 0 0 1-4.15-.29 11.17 11.17 0 0 1-8.1-4.61V307z" class="cls-3" id="Fill-1" fill="#282828"/></g></g><g id="Group-6"><g id="g19" mask="url(#mask-2-2)"><path d="M371.48 306.83a5.61 5.61 0 0 1-.87-.05l-1-.16 6.14-14.78c.45-1.09 1-2.67.59-3.68-3.68-9.13-7.2-17.92-10.79-26.9l-3.5-8.74c-.62-1.56-1-2.64-.45-3.42.55-.78 1.7-.8 3.3-.8 2.34 0 3 1.2 3.58 2.66.84 2.1 10.37 26.15 12.15 30.54l12.18-30.29c.84-2.05 2.26-3.18 4-3.18a5 5 0 0 1 1.9.41 1.76 1.76 0 0 1 1.23 2.33l-20.47 50.72a8.41 8.41 0 0 1-7.94 5.34" class="cls-3" id="Fill-4" fill="#282828"/></g></g><path d="M261.68 272.35c-2.72 0-5.08.08-6.81.24-4.44.4-6.14 2.06-6.27 6.12a25 25 0 0 0 0 2.51c.24 3.41 2.23 5.36 5.61 5.5 1.25 0 2.29.07 3.27.07s2 0 3-.08a11 11 0 0 0 8.92-5.18c1.38-2 1.33-4.29 1.28-6.67v-1.21a6.11 6.11 0 0 0-.05-.95 7.2 7.2 0 0 0-1-.11c-2.25-.15-5.18-.24-7.95-.24zm14.93 20.91c-2.06 0-5.94-1.16-5.94-5.55v-.29l-.11.12c-2.17 3.24-6.61 5.52-11.07 5.68h-1.92a37.27 37.27 0 0 1-5.82-.42 11.08 11.08 0 0 1-9.43-8.26 17.16 17.16 0 0 1-.05-9.81 10.32 10.32 0 0 1 9.22-7.88 90.73 90.73 0 0 1 10.5-.55c2.65 0 5.35.09 7.6.26a4.79 4.79 0 0 0 .52 0 1.53 1.53 0 0 0 .5-.05 6.74 6.74 0 0 0 0-1.2 45.85 45.85 0 0 0-.73-6.71c-.4-2-1.77-3.2-4.18-3.76a21.68 21.68 0 0 0-4.85-.56 14.91 14.91 0 0 0-11.39 4.72 3.56 3.56 0 0 1-2.4 1.51 1.81 1.81 0 0 1-1-.29 15.81 15.81 0 0 1-2.72-2.07c-.46-.44-.66-1.4.28-2.64a19.17 19.17 0 0 1 8.82-6.24 27.41 27.41 0 0 1 8.46-1.22 31.9 31.9 0 0 1 6.63.67 11.15 11.15 0 0 1 8.95 8.5 29.58 29.58 0 0 1 .88 6.11c.34 8 .06 28.9.05 29.11v.81z" class="cls-3" id="Fill-7" fill="#282828"/><path d="M292.51 293.26c-2.08 0-6-1.14-6-5.45v-39.68h.83c2.12 0 6.13 1.09 6.13 5.19v.08l.07-.07a21.09 21.09 0 0 1 3.91-3.14 14.28 14.28 0 0 1 7.64-2 21.72 21.72 0 0 1 2.74.18 17.94 17.94 0 0 1 4.17.89 2 2 0 0 1 1.39 2.66 8.36 8.36 0 0 1-.88 1.87l-.06.09a1.94 1.94 0 0 1-1.75 1.14 6.78 6.78 0 0 1-1.38-.2 19.77 19.77 0 0 0-4.37-.51 13.05 13.05 0 0 0-5 .89 23.39 23.39 0 0 0-3.87 2.1 5.88 5.88 0 0 0-2.67 5.51V293.25z" class="cls-3" id="Fill-9" fill="#282828"/><path d="M324.88 292.62c-2.09 0-6-1-6-4.91V248h.84c2.08 0 6 1.35 6 6v38.62z" class="cls-3" id="Fill-11" fill="#282828"/><path d="M345.43 292.62c-2 0-5.78-1-5.78-4.91v-32.37h-5c-1 0-1.57-1.16-1.57-2v-3.27c0-.86.52-1.29 1.57-1.29h5v-12.26h.83c2 0 5.78.75 5.78 4.91v7.36h9.84c1.43 0 1.73.7 1.73 1.29v3.27c0 .8-.73 2-1.73 2h-9.84v37.27z" class="cls-3" id="Fill-13" fill="#282828"/><path d="M322.27 239.4a4.7 4.7 0 1 1 4.75-4.7 4.73 4.73 0 0 1-4.75 4.7" class="cls-3" id="Fill-15" fill="#282828"/></g><g data-name="11 Line Logo" id="_11_Line_Logo"><g id="Rotated-Red"><g id="Red"><path class="cls-3" id="Path-2" fill="#282828" d="M58.13 209.36l-.49-.8 89.67-56.03.49.8z"/><path class="cls-3" data-name="Path-2" id="Path-2-2" fill="#282828" d="M63.35 217.7l-.5-.79 89.67-56.04.5.8z"/><path class="cls-3" data-name="Path-2" id="Path-2-3" fill="#282828" d="M68.56 226.04l-.5-.79 89.67-56.04.5.8z"/><path class="cls-3" data-name="Path-2" id="Path-2-4" fill="#282828" d="M73.77 234.38l-.5-.79 89.67-56.03.5.79z"/><path class="cls-3" data-name="Path-2" id="Path-2-5" fill="#282828" d="M78.98 242.72l-.49-.79 89.67-56.03.5.79z"/><path class="cls-3" data-name="Path-2" id="Path-2-6" fill="#282828" d="M84.19 251.07l-.49-.8 89.67-56.03.5.79z"/><path class="cls-3" data-name="Path-2" id="Path-2-7" fill="#282828" d="M89.41 259.41l-.5-.8 89.67-56.03.5.8z"/><path class="cls-3" data-name="Path-2" id="Path-2-8" fill="#282828" d="M94.62 267.75l-.5-.8 89.67-56.03.5.8z"/><path class="cls-3" data-name="Path-2" id="Path-2-9" fill="#282828" d="M99.83 276.09l-.5-.79 89.68-56.04.49.8z"/><path class="cls-3" data-name="Path-2" id="Path-2-10" fill="#282828" d="M105.04 284.43l-.49-.79 89.67-56.04.5.8z"/><path class="cls-3" data-name="Path-2" id="Path-2-11" fill="#282828" d="M110.26 292.77l-.5-.79 89.67-56.03.5.79z"/></g></g><path id="polygon41" class="cls-3" fill="#282828" d="M95.8 214.82l28.24-17.65h-1.77L95.8 213.71z"/><path id="polygon43" class="cls-3" fill="#282828" d="M95.8 203.22l9.68-6.05h-1.77l-7.91 4.94z"/><path id="polygon45" class="cls-3" fill="#282828" d="M129.68 216.85l31.48-19.68h-1.76l-31.49 19.68z"/><path id="polygon47" class="cls-3" fill="#282828" d="M111.12 216.85l31.48-19.68h-1.77l-31.48 19.68z"/><path id="polygon49" class="cls-3" fill="#282828" d="M148.24 216.85l13.94-8.71v-1.11l-15.71 9.82z"/><path id="polygon51" class="cls-3" fill="#282828" d="M148.82 251.28l13.38-8.36v-1.11l-15.15 9.47z"/><path id="polygon53" class="cls-3" fill="#282828" d="M130.26 251.28l31.48-19.67h-1.77l-31.48 19.67z"/><path id="polygon55" class="cls-3" fill="#282828" d="M111.7 251.28l31.48-19.67h-1.77l-31.48 19.67z"/><path id="polygon57" class="cls-3" fill="#282828" d="M95.8 249.61l28.82-18h-1.77l-27.05 16.9z"/><path id="polygon59" class="cls-3" fill="#282828" d="M95.8 238.01l10.26-6.4h-1.77l-8.49 5.3z"/></g></g></g></svg>